<mxfile host="app.diagrams.net" modified="2022-11-17T19:21:57.676Z" agent="5.0 (Windows NT 10.0; Win64; x64) AppleWebKit/537.36 (KHTML, like Gecko) Chrome/107.0.0.0 Safari/537.36" etag="9RWkYKSAKtwgCLK4zkYm" version="20.5.3" type="github">
  <diagram name="Page-1" id="74e2e168-ea6b-b213-b513-2b3c1d86103e">
    <mxGraphModel dx="1422" dy="762" grid="1" gridSize="10" guides="1" tooltips="1" connect="1" arrows="1" fold="1" page="0" pageScale="1" pageWidth="1100" pageHeight="850" background="none" math="0" shadow="0">
      <root>
        <mxCell id="0" />
        <mxCell id="1" parent="0" />
        <mxCell id="bL9SBz04uiBQj-h55vJ3-4" value="" style="edgeStyle=orthogonalEdgeStyle;rounded=0;orthogonalLoop=1;jettySize=auto;html=1;labelBackgroundColor=none;" edge="1" parent="1" source="bL9SBz04uiBQj-h55vJ3-1" target="bL9SBz04uiBQj-h55vJ3-2">
          <mxGeometry relative="1" as="geometry" />
        </mxCell>
        <mxCell id="bL9SBz04uiBQj-h55vJ3-1" value="начало" style="rounded=1;whiteSpace=wrap;html=1;labelBackgroundColor=none;" vertex="1" parent="1">
          <mxGeometry x="490" y="50" width="120" height="60" as="geometry" />
        </mxCell>
        <mxCell id="bL9SBz04uiBQj-h55vJ3-5" value="" style="edgeStyle=orthogonalEdgeStyle;rounded=0;orthogonalLoop=1;jettySize=auto;html=1;labelBackgroundColor=none;" edge="1" parent="1" source="bL9SBz04uiBQj-h55vJ3-2" target="bL9SBz04uiBQj-h55vJ3-3">
          <mxGeometry relative="1" as="geometry" />
        </mxCell>
        <mxCell id="bL9SBz04uiBQj-h55vJ3-2" value="&lt;span style=&quot;box-sizing: border-box; color: rgb(201, 209, 217); font-family: ui-monospace, SFMono-Regular, &amp;quot;SF Mono&amp;quot;, Menlo, Consolas, &amp;quot;Liberation Mono&amp;quot;, monospace; text-align: start;&quot; class=&quot;pl-s1&quot;&gt;&lt;span style=&quot;box-sizing: border-box;&quot; data-hydro-click-hmac=&quot;f930e679b1ae330741d6f11b277754e4534c56c58a674356c2df198056ca37ab&quot; data-hydro-click=&quot;{&amp;quot;event_type&amp;quot;:&amp;quot;code_navigation.click_on_symbol&amp;quot;,&amp;quot;payload&amp;quot;:{&amp;quot;action&amp;quot;:&amp;quot;click_on_symbol&amp;quot;,&amp;quot;repository_id&amp;quot;:534065516,&amp;quot;ref&amp;quot;:&amp;quot;master&amp;quot;,&amp;quot;language&amp;quot;:&amp;quot;Python&amp;quot;,&amp;quot;backend&amp;quot;:&amp;quot;ALEPH_PRECISE&amp;quot;,&amp;quot;code_nav_context&amp;quot;:&amp;quot;BLOB_VIEW&amp;quot;,&amp;quot;retry_backend&amp;quot;:&amp;quot;&amp;quot;,&amp;quot;cross_repo_results_included&amp;quot;:&amp;quot;CROSS_REPO_ENABLED&amp;quot;,&amp;quot;in_repo_result_count&amp;quot;:1,&amp;quot;cross_repo_result_count&amp;quot;:0,&amp;quot;originating_url&amp;quot;:&amp;quot;https://github.com/Propolisss/school_code_python/find-definition?q=minn_len&amp;amp;blob_path=classwork%2F01_11_2022%2F12.py&amp;amp;ref=master&amp;amp;language=Python&amp;amp;row=4&amp;amp;col=0&amp;amp;code_nav_context=BLOB_VIEW&amp;quot;,&amp;quot;user_id&amp;quot;:108543596}}&quot; class=&quot;pl-token&quot;&gt;minn_len&lt;/span&gt;&lt;/span&gt;&lt;span style=&quot;color: rgb(201, 209, 217); font-family: ui-monospace, SFMono-Regular, &amp;quot;SF Mono&amp;quot;, Menlo, Consolas, &amp;quot;Liberation Mono&amp;quot;, monospace; text-align: start;&quot;&gt; &lt;/span&gt;&lt;span style=&quot;box-sizing: border-box; color: var(--color-prettylights-syntax-constant); font-family: ui-monospace, SFMono-Regular, &amp;quot;SF Mono&amp;quot;, Menlo, Consolas, &amp;quot;Liberation Mono&amp;quot;, monospace; text-align: start;&quot; class=&quot;pl-c1&quot;&gt;=&lt;/span&gt;&lt;span style=&quot;color: rgb(201, 209, 217); font-family: ui-monospace, SFMono-Regular, &amp;quot;SF Mono&amp;quot;, Menlo, Consolas, &amp;quot;Liberation Mono&amp;quot;, monospace; text-align: start;&quot;&gt; &lt;/span&gt;&lt;span style=&quot;box-sizing: border-box; color: var(--color-prettylights-syntax-constant); font-family: ui-monospace, SFMono-Regular, &amp;quot;SF Mono&amp;quot;, Menlo, Consolas, &amp;quot;Liberation Mono&amp;quot;, monospace; text-align: start;&quot; class=&quot;pl-c1&quot;&gt;10&lt;/span&gt;&lt;span style=&quot;color: rgb(201, 209, 217); font-family: ui-monospace, SFMono-Regular, &amp;quot;SF Mono&amp;quot;, Menlo, Consolas, &amp;quot;Liberation Mono&amp;quot;, monospace; text-align: start;&quot;&gt; &lt;/span&gt;&lt;span style=&quot;box-sizing: border-box; color: var(--color-prettylights-syntax-constant); font-family: ui-monospace, SFMono-Regular, &amp;quot;SF Mono&amp;quot;, Menlo, Consolas, &amp;quot;Liberation Mono&amp;quot;, monospace; text-align: start;&quot; class=&quot;pl-c1&quot;&gt;**&lt;/span&gt;&lt;span style=&quot;color: rgb(201, 209, 217); font-family: ui-monospace, SFMono-Regular, &amp;quot;SF Mono&amp;quot;, Menlo, Consolas, &amp;quot;Liberation Mono&amp;quot;, monospace; text-align: start;&quot;&gt; &lt;/span&gt;&lt;span style=&quot;box-sizing: border-box; color: var(--color-prettylights-syntax-constant); font-family: ui-monospace, SFMono-Regular, &amp;quot;SF Mono&amp;quot;, Menlo, Consolas, &amp;quot;Liberation Mono&amp;quot;, monospace; text-align: start;&quot; class=&quot;pl-c1&quot;&gt;10&lt;/span&gt;" style="rounded=0;whiteSpace=wrap;html=1;labelBackgroundColor=none;" vertex="1" parent="1">
          <mxGeometry x="490" y="170" width="120" height="60" as="geometry" />
        </mxCell>
        <mxCell id="bL9SBz04uiBQj-h55vJ3-7" value="" style="edgeStyle=orthogonalEdgeStyle;rounded=0;orthogonalLoop=1;jettySize=auto;html=1;labelBackgroundColor=none;" edge="1" parent="1" source="bL9SBz04uiBQj-h55vJ3-3" target="bL9SBz04uiBQj-h55vJ3-6">
          <mxGeometry relative="1" as="geometry" />
        </mxCell>
        <mxCell id="bL9SBz04uiBQj-h55vJ3-3" value="&lt;span style=&quot;box-sizing: border-box; color: rgb(201, 209, 217); font-family: ui-monospace, SFMono-Regular, &amp;quot;SF Mono&amp;quot;, Menlo, Consolas, &amp;quot;Liberation Mono&amp;quot;, monospace; text-align: start;&quot; class=&quot;pl-s1&quot;&gt;&lt;span style=&quot;box-sizing: border-box;&quot; data-hydro-click-hmac=&quot;21a0003d59acfd0424eb4380b5d3b1e2c7009830b4049336a9d04b02a6229937&quot; data-hydro-click=&quot;{&amp;quot;event_type&amp;quot;:&amp;quot;code_navigation.click_on_symbol&amp;quot;,&amp;quot;payload&amp;quot;:{&amp;quot;action&amp;quot;:&amp;quot;click_on_symbol&amp;quot;,&amp;quot;repository_id&amp;quot;:534065516,&amp;quot;ref&amp;quot;:&amp;quot;master&amp;quot;,&amp;quot;language&amp;quot;:&amp;quot;Python&amp;quot;,&amp;quot;backend&amp;quot;:&amp;quot;ALEPH_PRECISE&amp;quot;,&amp;quot;code_nav_context&amp;quot;:&amp;quot;BLOB_VIEW&amp;quot;,&amp;quot;retry_backend&amp;quot;:&amp;quot;&amp;quot;,&amp;quot;cross_repo_results_included&amp;quot;:&amp;quot;CROSS_REPO_ENABLED&amp;quot;,&amp;quot;in_repo_result_count&amp;quot;:1,&amp;quot;cross_repo_result_count&amp;quot;:0,&amp;quot;originating_url&amp;quot;:&amp;quot;https://github.com/Propolisss/school_code_python/find-definition?q=minn_five&amp;amp;blob_path=classwork%2F01_11_2022%2F12.py&amp;amp;ref=master&amp;amp;language=Python&amp;amp;row=5&amp;amp;col=0&amp;amp;code_nav_context=BLOB_VIEW&amp;quot;,&amp;quot;user_id&amp;quot;:108543596}}&quot; class=&quot;pl-token&quot;&gt;minn_five&lt;/span&gt;&lt;/span&gt;&lt;span style=&quot;color: rgb(201, 209, 217); font-family: ui-monospace, SFMono-Regular, &amp;quot;SF Mono&amp;quot;, Menlo, Consolas, &amp;quot;Liberation Mono&amp;quot;, monospace; text-align: start;&quot;&gt; &lt;/span&gt;&lt;span style=&quot;box-sizing: border-box; color: var(--color-prettylights-syntax-constant); font-family: ui-monospace, SFMono-Regular, &amp;quot;SF Mono&amp;quot;, Menlo, Consolas, &amp;quot;Liberation Mono&amp;quot;, monospace; text-align: start;&quot; class=&quot;pl-c1&quot;&gt;=&lt;/span&gt;&lt;span style=&quot;color: rgb(201, 209, 217); font-family: ui-monospace, SFMono-Regular, &amp;quot;SF Mono&amp;quot;, Menlo, Consolas, &amp;quot;Liberation Mono&amp;quot;, monospace; text-align: start;&quot;&gt; &lt;/span&gt;&lt;span style=&quot;box-sizing: border-box; color: var(--color-prettylights-syntax-constant); font-family: ui-monospace, SFMono-Regular, &amp;quot;SF Mono&amp;quot;, Menlo, Consolas, &amp;quot;Liberation Mono&amp;quot;, monospace; text-align: start;&quot; class=&quot;pl-c1&quot;&gt;10&lt;/span&gt;&lt;span style=&quot;color: rgb(201, 209, 217); font-family: ui-monospace, SFMono-Regular, &amp;quot;SF Mono&amp;quot;, Menlo, Consolas, &amp;quot;Liberation Mono&amp;quot;, monospace; text-align: start;&quot;&gt; &lt;/span&gt;&lt;span style=&quot;box-sizing: border-box; color: var(--color-prettylights-syntax-constant); font-family: ui-monospace, SFMono-Regular, &amp;quot;SF Mono&amp;quot;, Menlo, Consolas, &amp;quot;Liberation Mono&amp;quot;, monospace; text-align: start;&quot; class=&quot;pl-c1&quot;&gt;**&lt;/span&gt;&lt;span style=&quot;color: rgb(201, 209, 217); font-family: ui-monospace, SFMono-Regular, &amp;quot;SF Mono&amp;quot;, Menlo, Consolas, &amp;quot;Liberation Mono&amp;quot;, monospace; text-align: start;&quot;&gt; &lt;/span&gt;&lt;span style=&quot;box-sizing: border-box; color: var(--color-prettylights-syntax-constant); font-family: ui-monospace, SFMono-Regular, &amp;quot;SF Mono&amp;quot;, Menlo, Consolas, &amp;quot;Liberation Mono&amp;quot;, monospace; text-align: start;&quot; class=&quot;pl-c1&quot;&gt;10&lt;/span&gt;" style="rounded=0;whiteSpace=wrap;html=1;labelBackgroundColor=none;" vertex="1" parent="1">
          <mxGeometry x="490" y="270" width="120" height="60" as="geometry" />
        </mxCell>
        <mxCell id="bL9SBz04uiBQj-h55vJ3-10" value="" style="edgeStyle=orthogonalEdgeStyle;rounded=0;orthogonalLoop=1;jettySize=auto;html=1;labelBackgroundColor=none;" edge="1" parent="1" source="bL9SBz04uiBQj-h55vJ3-6" target="bL9SBz04uiBQj-h55vJ3-9">
          <mxGeometry relative="1" as="geometry" />
        </mxCell>
        <mxCell id="bL9SBz04uiBQj-h55vJ3-38" style="edgeStyle=orthogonalEdgeStyle;rounded=0;orthogonalLoop=1;jettySize=auto;html=1;labelBackgroundColor=none;" edge="1" parent="1" source="bL9SBz04uiBQj-h55vJ3-6" target="bL9SBz04uiBQj-h55vJ3-37">
          <mxGeometry relative="1" as="geometry" />
        </mxCell>
        <mxCell id="bL9SBz04uiBQj-h55vJ3-6" value="&lt;span style=&quot;box-sizing: border-box; color: var(--color-prettylights-syntax-keyword); font-family: ui-monospace, SFMono-Regular, &amp;quot;SF Mono&amp;quot;, Menlo, Consolas, &amp;quot;Liberation Mono&amp;quot;, monospace; text-align: start;&quot; class=&quot;pl-k&quot;&gt;for&lt;/span&gt;&lt;span style=&quot;color: rgb(201, 209, 217); font-family: ui-monospace, SFMono-Regular, &amp;quot;SF Mono&amp;quot;, Menlo, Consolas, &amp;quot;Liberation Mono&amp;quot;, monospace; text-align: start;&quot;&gt; &lt;/span&gt;&lt;span style=&quot;box-sizing: border-box; color: rgb(201, 209, 217); font-family: ui-monospace, SFMono-Regular, &amp;quot;SF Mono&amp;quot;, Menlo, Consolas, &amp;quot;Liberation Mono&amp;quot;, monospace; text-align: start;&quot; class=&quot;pl-s1&quot;&gt;&lt;span style=&quot;box-sizing: border-box;&quot; data-hydro-click-hmac=&quot;1d6e60f109a9fedf7ee75dab980cd113a49d17d5567f63676acff2346ecb2fb9&quot; data-hydro-click=&quot;{&amp;quot;event_type&amp;quot;:&amp;quot;code_navigation.click_on_symbol&amp;quot;,&amp;quot;payload&amp;quot;:{&amp;quot;action&amp;quot;:&amp;quot;click_on_symbol&amp;quot;,&amp;quot;repository_id&amp;quot;:534065516,&amp;quot;ref&amp;quot;:&amp;quot;master&amp;quot;,&amp;quot;language&amp;quot;:&amp;quot;Python&amp;quot;,&amp;quot;backend&amp;quot;:&amp;quot;ALEPH_PRECISE&amp;quot;,&amp;quot;code_nav_context&amp;quot;:&amp;quot;BLOB_VIEW&amp;quot;,&amp;quot;retry_backend&amp;quot;:&amp;quot;&amp;quot;,&amp;quot;cross_repo_results_included&amp;quot;:&amp;quot;CROSS_REPO_ENABLED&amp;quot;,&amp;quot;in_repo_result_count&amp;quot;:1,&amp;quot;cross_repo_result_count&amp;quot;:0,&amp;quot;originating_url&amp;quot;:&amp;quot;https://github.com/Propolisss/school_code_python/find-definition?q=i&amp;amp;blob_path=classwork%2F01_11_2022%2F12.py&amp;amp;ref=master&amp;amp;language=Python&amp;amp;row=7&amp;amp;col=4&amp;amp;code_nav_context=BLOB_VIEW&amp;quot;,&amp;quot;user_id&amp;quot;:108543596}}&quot; class=&quot;pl-token&quot;&gt;i&lt;/span&gt;&lt;/span&gt;&lt;span style=&quot;color: rgb(201, 209, 217); font-family: ui-monospace, SFMono-Regular, &amp;quot;SF Mono&amp;quot;, Menlo, Consolas, &amp;quot;Liberation Mono&amp;quot;, monospace; text-align: start;&quot;&gt; &lt;/span&gt;&lt;span style=&quot;box-sizing: border-box; color: var(--color-prettylights-syntax-constant); font-family: ui-monospace, SFMono-Regular, &amp;quot;SF Mono&amp;quot;, Menlo, Consolas, &amp;quot;Liberation Mono&amp;quot;, monospace; text-align: start;&quot; class=&quot;pl-c1&quot;&gt;in&lt;/span&gt;&lt;span style=&quot;color: rgb(201, 209, 217); font-family: ui-monospace, SFMono-Regular, &amp;quot;SF Mono&amp;quot;, Menlo, Consolas, &amp;quot;Liberation Mono&amp;quot;, monospace; text-align: start;&quot;&gt; &lt;/span&gt;&lt;span style=&quot;box-sizing: border-box; color: var(--color-prettylights-syntax-entity); font-family: ui-monospace, SFMono-Regular, &amp;quot;SF Mono&amp;quot;, Menlo, Consolas, &amp;quot;Liberation Mono&amp;quot;, monospace; text-align: start;&quot; class=&quot;pl-en&quot;&gt;&lt;span style=&quot;box-sizing: border-box;&quot; data-hydro-click-hmac=&quot;813989b7a132d5394cd33ce814aac29ac73bfc68be4125f99521aa0ad745575a&quot; data-hydro-click=&quot;{&amp;quot;event_type&amp;quot;:&amp;quot;code_navigation.click_on_symbol&amp;quot;,&amp;quot;payload&amp;quot;:{&amp;quot;action&amp;quot;:&amp;quot;click_on_symbol&amp;quot;,&amp;quot;repository_id&amp;quot;:534065516,&amp;quot;ref&amp;quot;:&amp;quot;master&amp;quot;,&amp;quot;language&amp;quot;:&amp;quot;Python&amp;quot;,&amp;quot;backend&amp;quot;:&amp;quot;ALEPH_PRECISE&amp;quot;,&amp;quot;code_nav_context&amp;quot;:&amp;quot;BLOB_VIEW&amp;quot;,&amp;quot;retry_backend&amp;quot;:&amp;quot;&amp;quot;,&amp;quot;cross_repo_results_included&amp;quot;:&amp;quot;CROSS_REPO_ENABLED&amp;quot;,&amp;quot;in_repo_result_count&amp;quot;:0,&amp;quot;cross_repo_result_count&amp;quot;:0,&amp;quot;originating_url&amp;quot;:&amp;quot;https://github.com/Propolisss/school_code_python/find-definition?q=range&amp;amp;blob_path=classwork%2F01_11_2022%2F12.py&amp;amp;ref=master&amp;amp;language=Python&amp;amp;row=7&amp;amp;col=9&amp;amp;code_nav_context=BLOB_VIEW&amp;quot;,&amp;quot;user_id&amp;quot;:108543596}}&quot; class=&quot;pl-token&quot;&gt;range&lt;/span&gt;&lt;/span&gt;&lt;span style=&quot;color: rgb(201, 209, 217); font-family: ui-monospace, SFMono-Regular, &amp;quot;SF Mono&amp;quot;, Menlo, Consolas, &amp;quot;Liberation Mono&amp;quot;, monospace; text-align: start;&quot;&gt;(&lt;/span&gt;&lt;span style=&quot;box-sizing: border-box; color: var(--color-prettylights-syntax-constant); font-family: ui-monospace, SFMono-Regular, &amp;quot;SF Mono&amp;quot;, Menlo, Consolas, &amp;quot;Liberation Mono&amp;quot;, monospace; text-align: start;&quot; class=&quot;pl-c1&quot;&gt;251&lt;/span&gt;&lt;span style=&quot;color: rgb(201, 209, 217); font-family: ui-monospace, SFMono-Regular, &amp;quot;SF Mono&amp;quot;, Menlo, Consolas, &amp;quot;Liberation Mono&amp;quot;, monospace; text-align: start;&quot;&gt;, &lt;/span&gt;&lt;span style=&quot;box-sizing: border-box; color: var(--color-prettylights-syntax-constant); font-family: ui-monospace, SFMono-Regular, &amp;quot;SF Mono&amp;quot;, Menlo, Consolas, &amp;quot;Liberation Mono&amp;quot;, monospace; text-align: start;&quot; class=&quot;pl-c1&quot;&gt;2000&lt;/span&gt;&lt;span style=&quot;color: rgb(201, 209, 217); font-family: ui-monospace, SFMono-Regular, &amp;quot;SF Mono&amp;quot;, Menlo, Consolas, &amp;quot;Liberation Mono&amp;quot;, monospace; text-align: start;&quot;&gt;):&lt;/span&gt;" style="rhombus;whiteSpace=wrap;html=1;labelBackgroundColor=none;" vertex="1" parent="1">
          <mxGeometry x="435" y="400" width="230" height="80" as="geometry" />
        </mxCell>
        <mxCell id="bL9SBz04uiBQj-h55vJ3-13" value="" style="edgeStyle=orthogonalEdgeStyle;rounded=0;orthogonalLoop=1;jettySize=auto;html=1;labelBackgroundColor=none;" edge="1" parent="1" source="bL9SBz04uiBQj-h55vJ3-8" target="bL9SBz04uiBQj-h55vJ3-12">
          <mxGeometry relative="1" as="geometry" />
        </mxCell>
        <mxCell id="bL9SBz04uiBQj-h55vJ3-8" value="&lt;span style=&quot;box-sizing: border-box; color: rgb(201, 209, 217); font-family: ui-monospace, SFMono-Regular, &amp;quot;SF Mono&amp;quot;, Menlo, Consolas, &amp;quot;Liberation Mono&amp;quot;, monospace; text-align: start;&quot; class=&quot;pl-s1&quot;&gt;&lt;span style=&quot;box-sizing: border-box;&quot; data-hydro-click-hmac=&quot;8dddadd094c464528a6607f4021acf2e5bbfd1221dfa8905325353804864af75&quot; data-hydro-click=&quot;{&amp;quot;event_type&amp;quot;:&amp;quot;code_navigation.click_on_symbol&amp;quot;,&amp;quot;payload&amp;quot;:{&amp;quot;action&amp;quot;:&amp;quot;click_on_symbol&amp;quot;,&amp;quot;repository_id&amp;quot;:534065516,&amp;quot;ref&amp;quot;:&amp;quot;master&amp;quot;,&amp;quot;language&amp;quot;:&amp;quot;Python&amp;quot;,&amp;quot;backend&amp;quot;:&amp;quot;ALEPH_PRECISE&amp;quot;,&amp;quot;code_nav_context&amp;quot;:&amp;quot;BLOB_VIEW&amp;quot;,&amp;quot;retry_backend&amp;quot;:&amp;quot;&amp;quot;,&amp;quot;cross_repo_results_included&amp;quot;:&amp;quot;CROSS_REPO_ENABLED&amp;quot;,&amp;quot;in_repo_result_count&amp;quot;:1,&amp;quot;cross_repo_result_count&amp;quot;:0,&amp;quot;originating_url&amp;quot;:&amp;quot;https://github.com/Propolisss/school_code_python/find-definition?q=len_st&amp;amp;blob_path=classwork%2F01_11_2022%2F12.py&amp;amp;ref=master&amp;amp;language=Python&amp;amp;row=9&amp;amp;col=4&amp;amp;code_nav_context=BLOB_VIEW&amp;quot;,&amp;quot;user_id&amp;quot;:108543596}}&quot; class=&quot;pl-token&quot;&gt;len_st&lt;/span&gt;&lt;/span&gt;&lt;span style=&quot;color: rgb(201, 209, 217); font-family: ui-monospace, SFMono-Regular, &amp;quot;SF Mono&amp;quot;, Menlo, Consolas, &amp;quot;Liberation Mono&amp;quot;, monospace; text-align: start;&quot;&gt; &lt;/span&gt;&lt;span style=&quot;box-sizing: border-box; color: var(--color-prettylights-syntax-constant); font-family: ui-monospace, SFMono-Regular, &amp;quot;SF Mono&amp;quot;, Menlo, Consolas, &amp;quot;Liberation Mono&amp;quot;, monospace; text-align: start;&quot; class=&quot;pl-c1&quot;&gt;=&lt;/span&gt;&lt;span style=&quot;color: rgb(201, 209, 217); font-family: ui-monospace, SFMono-Regular, &amp;quot;SF Mono&amp;quot;, Menlo, Consolas, &amp;quot;Liberation Mono&amp;quot;, monospace; text-align: start;&quot;&gt; &lt;/span&gt;&lt;span style=&quot;box-sizing: border-box; color: var(--color-prettylights-syntax-entity); font-family: ui-monospace, SFMono-Regular, &amp;quot;SF Mono&amp;quot;, Menlo, Consolas, &amp;quot;Liberation Mono&amp;quot;, monospace; text-align: start;&quot; class=&quot;pl-en&quot;&gt;&lt;span style=&quot;box-sizing: border-box;&quot; data-hydro-click-hmac=&quot;1b9360acd5181471054ba469572d2e3357fd07f89856f96d11b57bd5cc3440e4&quot; data-hydro-click=&quot;{&amp;quot;event_type&amp;quot;:&amp;quot;code_navigation.click_on_symbol&amp;quot;,&amp;quot;payload&amp;quot;:{&amp;quot;action&amp;quot;:&amp;quot;click_on_symbol&amp;quot;,&amp;quot;repository_id&amp;quot;:534065516,&amp;quot;ref&amp;quot;:&amp;quot;master&amp;quot;,&amp;quot;language&amp;quot;:&amp;quot;Python&amp;quot;,&amp;quot;backend&amp;quot;:&amp;quot;ALEPH_PRECISE&amp;quot;,&amp;quot;code_nav_context&amp;quot;:&amp;quot;BLOB_VIEW&amp;quot;,&amp;quot;retry_backend&amp;quot;:&amp;quot;&amp;quot;,&amp;quot;cross_repo_results_included&amp;quot;:&amp;quot;CROSS_REPO_ENABLED&amp;quot;,&amp;quot;in_repo_result_count&amp;quot;:0,&amp;quot;cross_repo_result_count&amp;quot;:0,&amp;quot;originating_url&amp;quot;:&amp;quot;https://github.com/Propolisss/school_code_python/find-definition?q=len&amp;amp;blob_path=classwork%2F01_11_2022%2F12.py&amp;amp;ref=master&amp;amp;language=Python&amp;amp;row=9&amp;amp;col=13&amp;amp;code_nav_context=BLOB_VIEW&amp;quot;,&amp;quot;user_id&amp;quot;:108543596}}&quot; class=&quot;pl-token&quot;&gt;len&lt;/span&gt;&lt;/span&gt;&lt;span style=&quot;color: rgb(201, 209, 217); font-family: ui-monospace, SFMono-Regular, &amp;quot;SF Mono&amp;quot;, Menlo, Consolas, &amp;quot;Liberation Mono&amp;quot;, monospace; text-align: start;&quot;&gt;(&lt;/span&gt;&lt;span style=&quot;box-sizing: border-box; color: rgb(201, 209, 217); font-family: ui-monospace, SFMono-Regular, &amp;quot;SF Mono&amp;quot;, Menlo, Consolas, &amp;quot;Liberation Mono&amp;quot;, monospace; text-align: start;&quot; class=&quot;pl-s1&quot;&gt;&lt;span style=&quot;box-sizing: border-box;&quot; data-hydro-click-hmac=&quot;21ef32f86c9e4a07ad8cb9a3a6921e86d965c8754bdf505def40d0c45d3203ea&quot; data-hydro-click=&quot;{&amp;quot;event_type&amp;quot;:&amp;quot;code_navigation.click_on_symbol&amp;quot;,&amp;quot;payload&amp;quot;:{&amp;quot;action&amp;quot;:&amp;quot;click_on_symbol&amp;quot;,&amp;quot;repository_id&amp;quot;:534065516,&amp;quot;ref&amp;quot;:&amp;quot;master&amp;quot;,&amp;quot;language&amp;quot;:&amp;quot;Python&amp;quot;,&amp;quot;backend&amp;quot;:&amp;quot;ALEPH_PRECISE&amp;quot;,&amp;quot;code_nav_context&amp;quot;:&amp;quot;BLOB_VIEW&amp;quot;,&amp;quot;retry_backend&amp;quot;:&amp;quot;&amp;quot;,&amp;quot;cross_repo_results_included&amp;quot;:&amp;quot;CROSS_REPO_ENABLED&amp;quot;,&amp;quot;in_repo_result_count&amp;quot;:1,&amp;quot;cross_repo_result_count&amp;quot;:0,&amp;quot;originating_url&amp;quot;:&amp;quot;https://github.com/Propolisss/school_code_python/find-definition?q=st&amp;amp;blob_path=classwork%2F01_11_2022%2F12.py&amp;amp;ref=master&amp;amp;language=Python&amp;amp;row=9&amp;amp;col=17&amp;amp;code_nav_context=BLOB_VIEW&amp;quot;,&amp;quot;user_id&amp;quot;:108543596}}&quot; class=&quot;pl-token&quot;&gt;st&lt;/span&gt;&lt;/span&gt;&lt;span style=&quot;color: rgb(201, 209, 217); font-family: ui-monospace, SFMono-Regular, &amp;quot;SF Mono&amp;quot;, Menlo, Consolas, &amp;quot;Liberation Mono&amp;quot;, monospace; text-align: start;&quot;&gt;)&lt;/span&gt;" style="rounded=0;whiteSpace=wrap;html=1;labelBackgroundColor=none;" vertex="1" parent="1">
          <mxGeometry x="490" y="630" width="120" height="60" as="geometry" />
        </mxCell>
        <mxCell id="bL9SBz04uiBQj-h55vJ3-11" value="" style="edgeStyle=orthogonalEdgeStyle;rounded=0;orthogonalLoop=1;jettySize=auto;html=1;labelBackgroundColor=none;" edge="1" parent="1" source="bL9SBz04uiBQj-h55vJ3-9" target="bL9SBz04uiBQj-h55vJ3-8">
          <mxGeometry relative="1" as="geometry" />
        </mxCell>
        <mxCell id="bL9SBz04uiBQj-h55vJ3-9" value="&lt;span style=&quot;box-sizing: border-box; color: rgb(201, 209, 217); font-family: ui-monospace, SFMono-Regular, &amp;quot;SF Mono&amp;quot;, Menlo, Consolas, &amp;quot;Liberation Mono&amp;quot;, monospace; text-align: start;&quot; class=&quot;pl-s1&quot;&gt;&lt;span style=&quot;box-sizing: border-box;&quot; data-hydro-click-hmac=&quot;25509a6214ad6370416c086327e6f92216c4448f534d6473174a92ed18af72f6&quot; data-hydro-click=&quot;{&amp;quot;event_type&amp;quot;:&amp;quot;code_navigation.click_on_symbol&amp;quot;,&amp;quot;payload&amp;quot;:{&amp;quot;action&amp;quot;:&amp;quot;click_on_symbol&amp;quot;,&amp;quot;repository_id&amp;quot;:534065516,&amp;quot;ref&amp;quot;:&amp;quot;master&amp;quot;,&amp;quot;language&amp;quot;:&amp;quot;Python&amp;quot;,&amp;quot;backend&amp;quot;:&amp;quot;ALEPH_PRECISE&amp;quot;,&amp;quot;code_nav_context&amp;quot;:&amp;quot;BLOB_VIEW&amp;quot;,&amp;quot;retry_backend&amp;quot;:&amp;quot;&amp;quot;,&amp;quot;cross_repo_results_included&amp;quot;:&amp;quot;CROSS_REPO_ENABLED&amp;quot;,&amp;quot;in_repo_result_count&amp;quot;:1,&amp;quot;cross_repo_result_count&amp;quot;:0,&amp;quot;originating_url&amp;quot;:&amp;quot;https://github.com/Propolisss/school_code_python/find-definition?q=st&amp;amp;blob_path=classwork%2F01_11_2022%2F12.py&amp;amp;ref=master&amp;amp;language=Python&amp;amp;row=8&amp;amp;col=4&amp;amp;code_nav_context=BLOB_VIEW&amp;quot;,&amp;quot;user_id&amp;quot;:108543596}}&quot; class=&quot;pl-token&quot;&gt;st&lt;/span&gt;&lt;/span&gt;&lt;span style=&quot;color: rgb(201, 209, 217); font-family: ui-monospace, SFMono-Regular, &amp;quot;SF Mono&amp;quot;, Menlo, Consolas, &amp;quot;Liberation Mono&amp;quot;, monospace; text-align: start;&quot;&gt; &lt;/span&gt;&lt;span style=&quot;box-sizing: border-box; color: var(--color-prettylights-syntax-constant); font-family: ui-monospace, SFMono-Regular, &amp;quot;SF Mono&amp;quot;, Menlo, Consolas, &amp;quot;Liberation Mono&amp;quot;, monospace; text-align: start;&quot; class=&quot;pl-c1&quot;&gt;=&lt;/span&gt;&lt;span style=&quot;color: rgb(201, 209, 217); font-family: ui-monospace, SFMono-Regular, &amp;quot;SF Mono&amp;quot;, Menlo, Consolas, &amp;quot;Liberation Mono&amp;quot;, monospace; text-align: start;&quot;&gt; &lt;/span&gt;&lt;span style=&quot;box-sizing: border-box; color: var(--color-prettylights-syntax-string); font-family: ui-monospace, SFMono-Regular, &amp;quot;SF Mono&amp;quot;, Menlo, Consolas, &amp;quot;Liberation Mono&amp;quot;, monospace; text-align: start;&quot; class=&quot;pl-s&quot;&gt;&#39;5&#39;&lt;/span&gt;&lt;span style=&quot;color: rgb(201, 209, 217); font-family: ui-monospace, SFMono-Regular, &amp;quot;SF Mono&amp;quot;, Menlo, Consolas, &amp;quot;Liberation Mono&amp;quot;, monospace; text-align: start;&quot;&gt; &lt;/span&gt;&lt;span style=&quot;box-sizing: border-box; color: var(--color-prettylights-syntax-constant); font-family: ui-monospace, SFMono-Regular, &amp;quot;SF Mono&amp;quot;, Menlo, Consolas, &amp;quot;Liberation Mono&amp;quot;, monospace; text-align: start;&quot; class=&quot;pl-c1&quot;&gt;*&lt;/span&gt;&lt;span style=&quot;color: rgb(201, 209, 217); font-family: ui-monospace, SFMono-Regular, &amp;quot;SF Mono&amp;quot;, Menlo, Consolas, &amp;quot;Liberation Mono&amp;quot;, monospace; text-align: start;&quot;&gt; &lt;/span&gt;&lt;span style=&quot;box-sizing: border-box; color: rgb(201, 209, 217); font-family: ui-monospace, SFMono-Regular, &amp;quot;SF Mono&amp;quot;, Menlo, Consolas, &amp;quot;Liberation Mono&amp;quot;, monospace; text-align: start;&quot; class=&quot;pl-s1&quot;&gt;&lt;span style=&quot;box-sizing: border-box;&quot; data-hydro-click-hmac=&quot;3fde16d502a9d7b9b360b31c5aa82b316a95b80937fe1bc54713b47a94ce628e&quot; data-hydro-click=&quot;{&amp;quot;event_type&amp;quot;:&amp;quot;code_navigation.click_on_symbol&amp;quot;,&amp;quot;payload&amp;quot;:{&amp;quot;action&amp;quot;:&amp;quot;click_on_symbol&amp;quot;,&amp;quot;repository_id&amp;quot;:534065516,&amp;quot;ref&amp;quot;:&amp;quot;master&amp;quot;,&amp;quot;language&amp;quot;:&amp;quot;Python&amp;quot;,&amp;quot;backend&amp;quot;:&amp;quot;ALEPH_PRECISE&amp;quot;,&amp;quot;code_nav_context&amp;quot;:&amp;quot;BLOB_VIEW&amp;quot;,&amp;quot;retry_backend&amp;quot;:&amp;quot;&amp;quot;,&amp;quot;cross_repo_results_included&amp;quot;:&amp;quot;CROSS_REPO_ENABLED&amp;quot;,&amp;quot;in_repo_result_count&amp;quot;:1,&amp;quot;cross_repo_result_count&amp;quot;:0,&amp;quot;originating_url&amp;quot;:&amp;quot;https://github.com/Propolisss/school_code_python/find-definition?q=i&amp;amp;blob_path=classwork%2F01_11_2022%2F12.py&amp;amp;ref=master&amp;amp;language=Python&amp;amp;row=8&amp;amp;col=15&amp;amp;code_nav_context=BLOB_VIEW&amp;quot;,&amp;quot;user_id&amp;quot;:108543596}}&quot; class=&quot;pl-token&quot;&gt;i&lt;/span&gt;&lt;/span&gt;" style="rounded=0;whiteSpace=wrap;html=1;labelBackgroundColor=none;" vertex="1" parent="1">
          <mxGeometry x="490" y="510" width="120" height="60" as="geometry" />
        </mxCell>
        <mxCell id="bL9SBz04uiBQj-h55vJ3-18" value="" style="edgeStyle=orthogonalEdgeStyle;rounded=0;orthogonalLoop=1;jettySize=auto;html=1;labelBackgroundColor=none;" edge="1" parent="1" source="bL9SBz04uiBQj-h55vJ3-12" target="bL9SBz04uiBQj-h55vJ3-15">
          <mxGeometry relative="1" as="geometry" />
        </mxCell>
        <mxCell id="bL9SBz04uiBQj-h55vJ3-25" style="edgeStyle=orthogonalEdgeStyle;rounded=0;orthogonalLoop=1;jettySize=auto;html=1;entryX=0;entryY=0.5;entryDx=0;entryDy=0;labelBackgroundColor=none;" edge="1" parent="1" source="bL9SBz04uiBQj-h55vJ3-12" target="bL9SBz04uiBQj-h55vJ3-24">
          <mxGeometry relative="1" as="geometry" />
        </mxCell>
        <mxCell id="bL9SBz04uiBQj-h55vJ3-12" value="&lt;span style=&quot;box-sizing: border-box; color: var(--color-prettylights-syntax-keyword); font-family: ui-monospace, SFMono-Regular, &amp;quot;SF Mono&amp;quot;, Menlo, Consolas, &amp;quot;Liberation Mono&amp;quot;, monospace; font-size: 12px; font-style: normal; font-variant-ligatures: normal; font-variant-caps: normal; font-weight: 400; letter-spacing: normal; orphans: 2; text-align: start; text-indent: 0px; text-transform: none; widows: 2; word-spacing: 0px; -webkit-text-stroke-width: 0px; text-decoration-thickness: initial; text-decoration-style: initial; text-decoration-color: initial;&quot; class=&quot;pl-k&quot;&gt;while&lt;/span&gt;&lt;span style=&quot;color: rgb(201, 209, 217); font-family: ui-monospace, SFMono-Regular, &amp;quot;SF Mono&amp;quot;, Menlo, Consolas, &amp;quot;Liberation Mono&amp;quot;, monospace; font-size: 12px; font-style: normal; font-variant-ligatures: normal; font-variant-caps: normal; font-weight: 400; letter-spacing: normal; orphans: 2; text-align: start; text-indent: 0px; text-transform: none; widows: 2; word-spacing: 0px; -webkit-text-stroke-width: 0px; text-decoration-thickness: initial; text-decoration-style: initial; text-decoration-color: initial; float: none; display: inline !important;&quot;&gt; &lt;/span&gt;&lt;span style=&quot;box-sizing: border-box; color: var(--color-prettylights-syntax-string); font-family: ui-monospace, SFMono-Regular, &amp;quot;SF Mono&amp;quot;, Menlo, Consolas, &amp;quot;Liberation Mono&amp;quot;, monospace; font-size: 12px; font-style: normal; font-variant-ligatures: normal; font-variant-caps: normal; font-weight: 400; letter-spacing: normal; orphans: 2; text-align: start; text-indent: 0px; text-transform: none; widows: 2; word-spacing: 0px; -webkit-text-stroke-width: 0px; text-decoration-thickness: initial; text-decoration-style: initial; text-decoration-color: initial;&quot; class=&quot;pl-s&quot;&gt;&#39;55555&#39;&lt;/span&gt;&lt;span style=&quot;color: rgb(201, 209, 217); font-family: ui-monospace, SFMono-Regular, &amp;quot;SF Mono&amp;quot;, Menlo, Consolas, &amp;quot;Liberation Mono&amp;quot;, monospace; font-size: 12px; font-style: normal; font-variant-ligatures: normal; font-variant-caps: normal; font-weight: 400; letter-spacing: normal; orphans: 2; text-align: start; text-indent: 0px; text-transform: none; widows: 2; word-spacing: 0px; -webkit-text-stroke-width: 0px; text-decoration-thickness: initial; text-decoration-style: initial; text-decoration-color: initial; float: none; display: inline !important;&quot;&gt; &lt;/span&gt;&lt;span style=&quot;box-sizing: border-box; color: var(--color-prettylights-syntax-constant); font-family: ui-monospace, SFMono-Regular, &amp;quot;SF Mono&amp;quot;, Menlo, Consolas, &amp;quot;Liberation Mono&amp;quot;, monospace; font-size: 12px; font-style: normal; font-variant-ligatures: normal; font-variant-caps: normal; font-weight: 400; letter-spacing: normal; orphans: 2; text-align: start; text-indent: 0px; text-transform: none; widows: 2; word-spacing: 0px; -webkit-text-stroke-width: 0px; text-decoration-thickness: initial; text-decoration-style: initial; text-decoration-color: initial;&quot; class=&quot;pl-c1&quot;&gt;in&lt;/span&gt;&lt;span style=&quot;color: rgb(201, 209, 217); font-family: ui-monospace, SFMono-Regular, &amp;quot;SF Mono&amp;quot;, Menlo, Consolas, &amp;quot;Liberation Mono&amp;quot;, monospace; font-size: 12px; font-style: normal; font-variant-ligatures: normal; font-variant-caps: normal; font-weight: 400; letter-spacing: normal; orphans: 2; text-align: start; text-indent: 0px; text-transform: none; widows: 2; word-spacing: 0px; -webkit-text-stroke-width: 0px; text-decoration-thickness: initial; text-decoration-style: initial; text-decoration-color: initial; float: none; display: inline !important;&quot;&gt; &lt;/span&gt;&lt;span style=&quot;box-sizing: border-box; color: rgb(201, 209, 217); font-family: ui-monospace, SFMono-Regular, &amp;quot;SF Mono&amp;quot;, Menlo, Consolas, &amp;quot;Liberation Mono&amp;quot;, monospace; font-size: 12px; font-style: normal; font-variant-ligatures: normal; font-variant-caps: normal; font-weight: 400; letter-spacing: normal; orphans: 2; text-align: start; text-indent: 0px; text-transform: none; widows: 2; word-spacing: 0px; -webkit-text-stroke-width: 0px; text-decoration-thickness: initial; text-decoration-style: initial; text-decoration-color: initial;&quot; class=&quot;pl-s1&quot;&gt;&lt;span style=&quot;box-sizing: border-box;&quot; data-hydro-click-hmac=&quot;50061036f445111123b78778800be5eadfa04239566ee680fbafb57344264c8a&quot; data-hydro-click=&quot;{&amp;quot;event_type&amp;quot;:&amp;quot;code_navigation.click_on_symbol&amp;quot;,&amp;quot;payload&amp;quot;:{&amp;quot;action&amp;quot;:&amp;quot;click_on_symbol&amp;quot;,&amp;quot;repository_id&amp;quot;:534065516,&amp;quot;ref&amp;quot;:&amp;quot;master&amp;quot;,&amp;quot;language&amp;quot;:&amp;quot;Python&amp;quot;,&amp;quot;backend&amp;quot;:&amp;quot;ALEPH_PRECISE&amp;quot;,&amp;quot;code_nav_context&amp;quot;:&amp;quot;BLOB_VIEW&amp;quot;,&amp;quot;retry_backend&amp;quot;:&amp;quot;&amp;quot;,&amp;quot;cross_repo_results_included&amp;quot;:&amp;quot;CROSS_REPO_ENABLED&amp;quot;,&amp;quot;in_repo_result_count&amp;quot;:1,&amp;quot;cross_repo_result_count&amp;quot;:0,&amp;quot;originating_url&amp;quot;:&amp;quot;https://github.com/Propolisss/school_code_python/find-definition?q=st&amp;amp;blob_path=classwork%2F01_11_2022%2F12.py&amp;amp;ref=master&amp;amp;language=Python&amp;amp;row=10&amp;amp;col=21&amp;amp;code_nav_context=BLOB_VIEW&amp;quot;,&amp;quot;user_id&amp;quot;:108543596}}&quot; class=&quot;pl-token&quot;&gt;st&lt;/span&gt;&lt;/span&gt;&lt;span style=&quot;color: rgb(201, 209, 217); font-family: ui-monospace, SFMono-Regular, &amp;quot;SF Mono&amp;quot;, Menlo, Consolas, &amp;quot;Liberation Mono&amp;quot;, monospace; font-size: 12px; font-style: normal; font-variant-ligatures: normal; font-variant-caps: normal; font-weight: 400; letter-spacing: normal; orphans: 2; text-align: start; text-indent: 0px; text-transform: none; widows: 2; word-spacing: 0px; -webkit-text-stroke-width: 0px; text-decoration-thickness: initial; text-decoration-style: initial; text-decoration-color: initial; float: none; display: inline !important;&quot;&gt;:&lt;/span&gt;" style="rhombus;whiteSpace=wrap;html=1;labelBackgroundColor=none;" vertex="1" parent="1">
          <mxGeometry x="440" y="720" width="220" height="110" as="geometry" />
        </mxCell>
        <mxCell id="bL9SBz04uiBQj-h55vJ3-23" style="edgeStyle=orthogonalEdgeStyle;rounded=0;orthogonalLoop=1;jettySize=auto;html=1;entryX=0;entryY=0.5;entryDx=0;entryDy=0;labelBackgroundColor=none;" edge="1" parent="1" source="bL9SBz04uiBQj-h55vJ3-14" target="bL9SBz04uiBQj-h55vJ3-12">
          <mxGeometry relative="1" as="geometry">
            <Array as="points">
              <mxPoint x="400" y="1000" />
              <mxPoint x="400" y="775" />
            </Array>
          </mxGeometry>
        </mxCell>
        <mxCell id="bL9SBz04uiBQj-h55vJ3-14" value="&lt;span style=&quot;box-sizing: border-box; color: rgb(201, 209, 217); font-family: ui-monospace, SFMono-Regular, &amp;quot;SF Mono&amp;quot;, Menlo, Consolas, &amp;quot;Liberation Mono&amp;quot;, monospace; text-align: start;&quot; class=&quot;pl-s1&quot;&gt;&lt;span style=&quot;box-sizing: border-box;&quot; data-hydro-click-hmac=&quot;a8cf355282fc221ba8fef82c3fc59a597f1a2d016bca78eff75f011278ac1dcd&quot; data-hydro-click=&quot;{&amp;quot;event_type&amp;quot;:&amp;quot;code_navigation.click_on_symbol&amp;quot;,&amp;quot;payload&amp;quot;:{&amp;quot;action&amp;quot;:&amp;quot;click_on_symbol&amp;quot;,&amp;quot;repository_id&amp;quot;:534065516,&amp;quot;ref&amp;quot;:&amp;quot;master&amp;quot;,&amp;quot;language&amp;quot;:&amp;quot;Python&amp;quot;,&amp;quot;backend&amp;quot;:&amp;quot;ALEPH_PRECISE&amp;quot;,&amp;quot;code_nav_context&amp;quot;:&amp;quot;BLOB_VIEW&amp;quot;,&amp;quot;retry_backend&amp;quot;:&amp;quot;&amp;quot;,&amp;quot;cross_repo_results_included&amp;quot;:&amp;quot;CROSS_REPO_ENABLED&amp;quot;,&amp;quot;in_repo_result_count&amp;quot;:1,&amp;quot;cross_repo_result_count&amp;quot;:0,&amp;quot;originating_url&amp;quot;:&amp;quot;https://github.com/Propolisss/school_code_python/find-definition?q=st&amp;amp;blob_path=classwork%2F01_11_2022%2F12.py&amp;amp;ref=master&amp;amp;language=Python&amp;amp;row=12&amp;amp;col=8&amp;amp;code_nav_context=BLOB_VIEW&amp;quot;,&amp;quot;user_id&amp;quot;:108543596}}&quot; class=&quot;pl-token&quot;&gt;st&lt;/span&gt;&lt;/span&gt;&lt;span style=&quot;color: rgb(201, 209, 217); font-family: ui-monospace, SFMono-Regular, &amp;quot;SF Mono&amp;quot;, Menlo, Consolas, &amp;quot;Liberation Mono&amp;quot;, monospace; text-align: start;&quot;&gt; &lt;/span&gt;&lt;span style=&quot;box-sizing: border-box; color: var(--color-prettylights-syntax-constant); font-family: ui-monospace, SFMono-Regular, &amp;quot;SF Mono&amp;quot;, Menlo, Consolas, &amp;quot;Liberation Mono&amp;quot;, monospace; text-align: start;&quot; class=&quot;pl-c1&quot;&gt;=&lt;/span&gt;&lt;span style=&quot;color: rgb(201, 209, 217); font-family: ui-monospace, SFMono-Regular, &amp;quot;SF Mono&amp;quot;, Menlo, Consolas, &amp;quot;Liberation Mono&amp;quot;, monospace; text-align: start;&quot;&gt; &lt;/span&gt;&lt;span style=&quot;box-sizing: border-box; color: rgb(201, 209, 217); font-family: ui-monospace, SFMono-Regular, &amp;quot;SF Mono&amp;quot;, Menlo, Consolas, &amp;quot;Liberation Mono&amp;quot;, monospace; text-align: start;&quot; class=&quot;pl-s1&quot;&gt;&lt;span style=&quot;box-sizing: border-box;&quot; data-hydro-click-hmac=&quot;bee428a310bdd676dfaf35eeee1d94bc4de8de53904711eb55143b9f4014835b&quot; data-hydro-click=&quot;{&amp;quot;event_type&amp;quot;:&amp;quot;code_navigation.click_on_symbol&amp;quot;,&amp;quot;payload&amp;quot;:{&amp;quot;action&amp;quot;:&amp;quot;click_on_symbol&amp;quot;,&amp;quot;repository_id&amp;quot;:534065516,&amp;quot;ref&amp;quot;:&amp;quot;master&amp;quot;,&amp;quot;language&amp;quot;:&amp;quot;Python&amp;quot;,&amp;quot;backend&amp;quot;:&amp;quot;ALEPH_PRECISE&amp;quot;,&amp;quot;code_nav_context&amp;quot;:&amp;quot;BLOB_VIEW&amp;quot;,&amp;quot;retry_backend&amp;quot;:&amp;quot;&amp;quot;,&amp;quot;cross_repo_results_included&amp;quot;:&amp;quot;CROSS_REPO_ENABLED&amp;quot;,&amp;quot;in_repo_result_count&amp;quot;:1,&amp;quot;cross_repo_result_count&amp;quot;:0,&amp;quot;originating_url&amp;quot;:&amp;quot;https://github.com/Propolisss/school_code_python/find-definition?q=st&amp;amp;blob_path=classwork%2F01_11_2022%2F12.py&amp;amp;ref=master&amp;amp;language=Python&amp;amp;row=12&amp;amp;col=13&amp;amp;code_nav_context=BLOB_VIEW&amp;quot;,&amp;quot;user_id&amp;quot;:108543596}}&quot; class=&quot;pl-token&quot;&gt;st&lt;/span&gt;&lt;/span&gt;&lt;span style=&quot;color: rgb(201, 209, 217); font-family: ui-monospace, SFMono-Regular, &amp;quot;SF Mono&amp;quot;, Menlo, Consolas, &amp;quot;Liberation Mono&amp;quot;, monospace; text-align: start;&quot;&gt;.&lt;/span&gt;&lt;span style=&quot;box-sizing: border-box; color: var(--color-prettylights-syntax-entity); font-family: ui-monospace, SFMono-Regular, &amp;quot;SF Mono&amp;quot;, Menlo, Consolas, &amp;quot;Liberation Mono&amp;quot;, monospace; text-align: start;&quot; class=&quot;pl-en&quot;&gt;&lt;span style=&quot;box-sizing: border-box;&quot; data-hydro-click-hmac=&quot;82ea4bc251525c074706541b65a0b37b955a85df450b3d8d63d6d542c2859dd8&quot; data-hydro-click=&quot;{&amp;quot;event_type&amp;quot;:&amp;quot;code_navigation.click_on_symbol&amp;quot;,&amp;quot;payload&amp;quot;:{&amp;quot;action&amp;quot;:&amp;quot;click_on_symbol&amp;quot;,&amp;quot;repository_id&amp;quot;:534065516,&amp;quot;ref&amp;quot;:&amp;quot;master&amp;quot;,&amp;quot;language&amp;quot;:&amp;quot;Python&amp;quot;,&amp;quot;backend&amp;quot;:&amp;quot;ALEPH_PRECISE&amp;quot;,&amp;quot;code_nav_context&amp;quot;:&amp;quot;BLOB_VIEW&amp;quot;,&amp;quot;retry_backend&amp;quot;:&amp;quot;&amp;quot;,&amp;quot;cross_repo_results_included&amp;quot;:&amp;quot;CROSS_REPO_ENABLED&amp;quot;,&amp;quot;in_repo_result_count&amp;quot;:0,&amp;quot;cross_repo_result_count&amp;quot;:0,&amp;quot;originating_url&amp;quot;:&amp;quot;https://github.com/Propolisss/school_code_python/find-definition?q=replace&amp;amp;blob_path=classwork%2F01_11_2022%2F12.py&amp;amp;ref=master&amp;amp;language=Python&amp;amp;row=12&amp;amp;col=16&amp;amp;code_nav_context=BLOB_VIEW&amp;quot;,&amp;quot;user_id&amp;quot;:108543596}}&quot; class=&quot;pl-token&quot;&gt;replace&lt;/span&gt;&lt;/span&gt;&lt;span style=&quot;color: rgb(201, 209, 217); font-family: ui-monospace, SFMono-Regular, &amp;quot;SF Mono&amp;quot;, Menlo, Consolas, &amp;quot;Liberation Mono&amp;quot;, monospace; text-align: start;&quot;&gt;(&lt;/span&gt;&lt;span style=&quot;box-sizing: border-box; color: var(--color-prettylights-syntax-string); font-family: ui-monospace, SFMono-Regular, &amp;quot;SF Mono&amp;quot;, Menlo, Consolas, &amp;quot;Liberation Mono&amp;quot;, monospace; text-align: start;&quot; class=&quot;pl-s&quot;&gt;&#39;888&#39;&lt;/span&gt;&lt;span style=&quot;color: rgb(201, 209, 217); font-family: ui-monospace, SFMono-Regular, &amp;quot;SF Mono&amp;quot;, Menlo, Consolas, &amp;quot;Liberation Mono&amp;quot;, monospace; text-align: start;&quot;&gt;, &lt;/span&gt;&lt;span style=&quot;box-sizing: border-box; color: var(--color-prettylights-syntax-string); font-family: ui-monospace, SFMono-Regular, &amp;quot;SF Mono&amp;quot;, Menlo, Consolas, &amp;quot;Liberation Mono&amp;quot;, monospace; text-align: start;&quot; class=&quot;pl-s&quot;&gt;&#39;555&#39;&lt;/span&gt;&lt;span style=&quot;color: rgb(201, 209, 217); font-family: ui-monospace, SFMono-Regular, &amp;quot;SF Mono&amp;quot;, Menlo, Consolas, &amp;quot;Liberation Mono&amp;quot;, monospace; text-align: start;&quot;&gt;, &lt;/span&gt;&lt;span style=&quot;box-sizing: border-box; color: var(--color-prettylights-syntax-constant); font-family: ui-monospace, SFMono-Regular, &amp;quot;SF Mono&amp;quot;, Menlo, Consolas, &amp;quot;Liberation Mono&amp;quot;, monospace; text-align: start;&quot; class=&quot;pl-c1&quot;&gt;1&lt;/span&gt;&lt;span style=&quot;color: rgb(201, 209, 217); font-family: ui-monospace, SFMono-Regular, &amp;quot;SF Mono&amp;quot;, Menlo, Consolas, &amp;quot;Liberation Mono&amp;quot;, monospace; text-align: start;&quot;&gt;)&lt;/span&gt;" style="rounded=0;whiteSpace=wrap;html=1;labelBackgroundColor=none;" vertex="1" parent="1">
          <mxGeometry x="420" y="970" width="260" height="60" as="geometry" />
        </mxCell>
        <mxCell id="bL9SBz04uiBQj-h55vJ3-19" value="" style="edgeStyle=orthogonalEdgeStyle;rounded=0;orthogonalLoop=1;jettySize=auto;html=1;labelBackgroundColor=none;" edge="1" parent="1" source="bL9SBz04uiBQj-h55vJ3-15" target="bL9SBz04uiBQj-h55vJ3-14">
          <mxGeometry relative="1" as="geometry" />
        </mxCell>
        <mxCell id="bL9SBz04uiBQj-h55vJ3-15" value="&lt;span style=&quot;box-sizing: border-box; color: rgb(201, 209, 217); font-family: ui-monospace, SFMono-Regular, &amp;quot;SF Mono&amp;quot;, Menlo, Consolas, &amp;quot;Liberation Mono&amp;quot;, monospace; text-align: start;&quot; class=&quot;pl-s1&quot;&gt;&lt;span style=&quot;box-sizing: border-box;&quot; data-hydro-click-hmac=&quot;011e4745d6f3f65be12924f7905786418600b59fa58d97f0d48641e82f3ebfee&quot; data-hydro-click=&quot;{&amp;quot;event_type&amp;quot;:&amp;quot;code_navigation.click_on_symbol&amp;quot;,&amp;quot;payload&amp;quot;:{&amp;quot;action&amp;quot;:&amp;quot;click_on_symbol&amp;quot;,&amp;quot;repository_id&amp;quot;:534065516,&amp;quot;ref&amp;quot;:&amp;quot;master&amp;quot;,&amp;quot;language&amp;quot;:&amp;quot;Python&amp;quot;,&amp;quot;backend&amp;quot;:&amp;quot;ALEPH_PRECISE&amp;quot;,&amp;quot;code_nav_context&amp;quot;:&amp;quot;BLOB_VIEW&amp;quot;,&amp;quot;retry_backend&amp;quot;:&amp;quot;&amp;quot;,&amp;quot;cross_repo_results_included&amp;quot;:&amp;quot;CROSS_REPO_ENABLED&amp;quot;,&amp;quot;in_repo_result_count&amp;quot;:1,&amp;quot;cross_repo_result_count&amp;quot;:0,&amp;quot;originating_url&amp;quot;:&amp;quot;https://github.com/Propolisss/school_code_python/find-definition?q=st&amp;amp;blob_path=classwork%2F01_11_2022%2F12.py&amp;amp;ref=master&amp;amp;language=Python&amp;amp;row=11&amp;amp;col=8&amp;amp;code_nav_context=BLOB_VIEW&amp;quot;,&amp;quot;user_id&amp;quot;:108543596}}&quot; class=&quot;pl-token&quot;&gt;st&lt;/span&gt;&lt;/span&gt;&lt;span style=&quot;color: rgb(201, 209, 217); font-family: ui-monospace, SFMono-Regular, &amp;quot;SF Mono&amp;quot;, Menlo, Consolas, &amp;quot;Liberation Mono&amp;quot;, monospace; text-align: start;&quot;&gt; &lt;/span&gt;&lt;span style=&quot;box-sizing: border-box; color: var(--color-prettylights-syntax-constant); font-family: ui-monospace, SFMono-Regular, &amp;quot;SF Mono&amp;quot;, Menlo, Consolas, &amp;quot;Liberation Mono&amp;quot;, monospace; text-align: start;&quot; class=&quot;pl-c1&quot;&gt;=&lt;/span&gt;&lt;span style=&quot;color: rgb(201, 209, 217); font-family: ui-monospace, SFMono-Regular, &amp;quot;SF Mono&amp;quot;, Menlo, Consolas, &amp;quot;Liberation Mono&amp;quot;, monospace; text-align: start;&quot;&gt; &lt;/span&gt;&lt;span style=&quot;box-sizing: border-box; color: rgb(201, 209, 217); font-family: ui-monospace, SFMono-Regular, &amp;quot;SF Mono&amp;quot;, Menlo, Consolas, &amp;quot;Liberation Mono&amp;quot;, monospace; text-align: start;&quot; class=&quot;pl-s1&quot;&gt;&lt;span style=&quot;box-sizing: border-box;&quot; data-hydro-click-hmac=&quot;e44f0467da2d4156ec1118fbb893a80101b583e2fbd18783a070f60f35277141&quot; data-hydro-click=&quot;{&amp;quot;event_type&amp;quot;:&amp;quot;code_navigation.click_on_symbol&amp;quot;,&amp;quot;payload&amp;quot;:{&amp;quot;action&amp;quot;:&amp;quot;click_on_symbol&amp;quot;,&amp;quot;repository_id&amp;quot;:534065516,&amp;quot;ref&amp;quot;:&amp;quot;master&amp;quot;,&amp;quot;language&amp;quot;:&amp;quot;Python&amp;quot;,&amp;quot;backend&amp;quot;:&amp;quot;ALEPH_PRECISE&amp;quot;,&amp;quot;code_nav_context&amp;quot;:&amp;quot;BLOB_VIEW&amp;quot;,&amp;quot;retry_backend&amp;quot;:&amp;quot;&amp;quot;,&amp;quot;cross_repo_results_included&amp;quot;:&amp;quot;CROSS_REPO_ENABLED&amp;quot;,&amp;quot;in_repo_result_count&amp;quot;:1,&amp;quot;cross_repo_result_count&amp;quot;:0,&amp;quot;originating_url&amp;quot;:&amp;quot;https://github.com/Propolisss/school_code_python/find-definition?q=st&amp;amp;blob_path=classwork%2F01_11_2022%2F12.py&amp;amp;ref=master&amp;amp;language=Python&amp;amp;row=11&amp;amp;col=13&amp;amp;code_nav_context=BLOB_VIEW&amp;quot;,&amp;quot;user_id&amp;quot;:108543596}}&quot; class=&quot;pl-token&quot;&gt;st&lt;/span&gt;&lt;/span&gt;&lt;span style=&quot;color: rgb(201, 209, 217); font-family: ui-monospace, SFMono-Regular, &amp;quot;SF Mono&amp;quot;, Menlo, Consolas, &amp;quot;Liberation Mono&amp;quot;, monospace; text-align: start;&quot;&gt;.&lt;/span&gt;&lt;span style=&quot;box-sizing: border-box; color: var(--color-prettylights-syntax-entity); font-family: ui-monospace, SFMono-Regular, &amp;quot;SF Mono&amp;quot;, Menlo, Consolas, &amp;quot;Liberation Mono&amp;quot;, monospace; text-align: start;&quot; class=&quot;pl-en&quot;&gt;&lt;span style=&quot;box-sizing: border-box;&quot; data-hydro-click-hmac=&quot;44048707f2530811585b934cbb61d7f923124907f71374c213653d7568d17062&quot; data-hydro-click=&quot;{&amp;quot;event_type&amp;quot;:&amp;quot;code_navigation.click_on_symbol&amp;quot;,&amp;quot;payload&amp;quot;:{&amp;quot;action&amp;quot;:&amp;quot;click_on_symbol&amp;quot;,&amp;quot;repository_id&amp;quot;:534065516,&amp;quot;ref&amp;quot;:&amp;quot;master&amp;quot;,&amp;quot;language&amp;quot;:&amp;quot;Python&amp;quot;,&amp;quot;backend&amp;quot;:&amp;quot;ALEPH_PRECISE&amp;quot;,&amp;quot;code_nav_context&amp;quot;:&amp;quot;BLOB_VIEW&amp;quot;,&amp;quot;retry_backend&amp;quot;:&amp;quot;&amp;quot;,&amp;quot;cross_repo_results_included&amp;quot;:&amp;quot;CROSS_REPO_ENABLED&amp;quot;,&amp;quot;in_repo_result_count&amp;quot;:0,&amp;quot;cross_repo_result_count&amp;quot;:0,&amp;quot;originating_url&amp;quot;:&amp;quot;https://github.com/Propolisss/school_code_python/find-definition?q=replace&amp;amp;blob_path=classwork%2F01_11_2022%2F12.py&amp;amp;ref=master&amp;amp;language=Python&amp;amp;row=11&amp;amp;col=16&amp;amp;code_nav_context=BLOB_VIEW&amp;quot;,&amp;quot;user_id&amp;quot;:108543596}}&quot; class=&quot;pl-token&quot;&gt;replace&lt;/span&gt;&lt;/span&gt;&lt;span style=&quot;color: rgb(201, 209, 217); font-family: ui-monospace, SFMono-Regular, &amp;quot;SF Mono&amp;quot;, Menlo, Consolas, &amp;quot;Liberation Mono&amp;quot;, monospace; text-align: start;&quot;&gt;(&lt;/span&gt;&lt;span style=&quot;box-sizing: border-box; color: var(--color-prettylights-syntax-string); font-family: ui-monospace, SFMono-Regular, &amp;quot;SF Mono&amp;quot;, Menlo, Consolas, &amp;quot;Liberation Mono&amp;quot;, monospace; text-align: start;&quot; class=&quot;pl-s&quot;&gt;&#39;55555&#39;&lt;/span&gt;&lt;span style=&quot;color: rgb(201, 209, 217); font-family: ui-monospace, SFMono-Regular, &amp;quot;SF Mono&amp;quot;, Menlo, Consolas, &amp;quot;Liberation Mono&amp;quot;, monospace; text-align: start;&quot;&gt;, &lt;/span&gt;&lt;span style=&quot;box-sizing: border-box; color: var(--color-prettylights-syntax-string); font-family: ui-monospace, SFMono-Regular, &amp;quot;SF Mono&amp;quot;, Menlo, Consolas, &amp;quot;Liberation Mono&amp;quot;, monospace; text-align: start;&quot; class=&quot;pl-s&quot;&gt;&#39;88&#39;&lt;/span&gt;&lt;span style=&quot;color: rgb(201, 209, 217); font-family: ui-monospace, SFMono-Regular, &amp;quot;SF Mono&amp;quot;, Menlo, Consolas, &amp;quot;Liberation Mono&amp;quot;, monospace; text-align: start;&quot;&gt;, &lt;/span&gt;&lt;span style=&quot;box-sizing: border-box; color: var(--color-prettylights-syntax-constant); font-family: ui-monospace, SFMono-Regular, &amp;quot;SF Mono&amp;quot;, Menlo, Consolas, &amp;quot;Liberation Mono&amp;quot;, monospace; text-align: start;&quot; class=&quot;pl-c1&quot;&gt;1&lt;/span&gt;&lt;span style=&quot;color: rgb(201, 209, 217); font-family: ui-monospace, SFMono-Regular, &amp;quot;SF Mono&amp;quot;, Menlo, Consolas, &amp;quot;Liberation Mono&amp;quot;, monospace; text-align: start;&quot;&gt;)&lt;/span&gt;" style="rounded=0;whiteSpace=wrap;html=1;labelBackgroundColor=none;" vertex="1" parent="1">
          <mxGeometry x="420" y="870" width="260" height="60" as="geometry" />
        </mxCell>
        <mxCell id="bL9SBz04uiBQj-h55vJ3-28" value="" style="edgeStyle=orthogonalEdgeStyle;rounded=0;orthogonalLoop=1;jettySize=auto;html=1;labelBackgroundColor=none;" edge="1" parent="1" source="bL9SBz04uiBQj-h55vJ3-24" target="bL9SBz04uiBQj-h55vJ3-27">
          <mxGeometry relative="1" as="geometry" />
        </mxCell>
        <mxCell id="bL9SBz04uiBQj-h55vJ3-34" value="" style="edgeStyle=orthogonalEdgeStyle;rounded=0;orthogonalLoop=1;jettySize=auto;html=1;labelBackgroundColor=none;" edge="1" parent="1" source="bL9SBz04uiBQj-h55vJ3-24" target="bL9SBz04uiBQj-h55vJ3-33">
          <mxGeometry relative="1" as="geometry" />
        </mxCell>
        <mxCell id="bL9SBz04uiBQj-h55vJ3-24" value="&lt;span style=&quot;box-sizing: border-box; color: var(--color-prettylights-syntax-keyword); font-family: ui-monospace, SFMono-Regular, &amp;quot;SF Mono&amp;quot;, Menlo, Consolas, &amp;quot;Liberation Mono&amp;quot;, monospace; text-align: start;&quot; class=&quot;pl-k&quot;&gt;if&lt;/span&gt;&lt;span style=&quot;color: rgb(201, 209, 217); font-family: ui-monospace, SFMono-Regular, &amp;quot;SF Mono&amp;quot;, Menlo, Consolas, &amp;quot;Liberation Mono&amp;quot;, monospace; text-align: start;&quot;&gt; &lt;/span&gt;&lt;span style=&quot;box-sizing: border-box; color: rgb(201, 209, 217); font-family: ui-monospace, SFMono-Regular, &amp;quot;SF Mono&amp;quot;, Menlo, Consolas, &amp;quot;Liberation Mono&amp;quot;, monospace; text-align: start;&quot; class=&quot;pl-s1&quot;&gt;&lt;span style=&quot;box-sizing: border-box;&quot; data-hydro-click-hmac=&quot;b1fc17871f106af5c6e51de6b20c6e62d13ef27cbb24b106f08eeeca013ae576&quot; data-hydro-click=&quot;{&amp;quot;event_type&amp;quot;:&amp;quot;code_navigation.click_on_symbol&amp;quot;,&amp;quot;payload&amp;quot;:{&amp;quot;action&amp;quot;:&amp;quot;click_on_symbol&amp;quot;,&amp;quot;repository_id&amp;quot;:534065516,&amp;quot;ref&amp;quot;:&amp;quot;master&amp;quot;,&amp;quot;language&amp;quot;:&amp;quot;Python&amp;quot;,&amp;quot;backend&amp;quot;:&amp;quot;ALEPH_PRECISE&amp;quot;,&amp;quot;code_nav_context&amp;quot;:&amp;quot;BLOB_VIEW&amp;quot;,&amp;quot;retry_backend&amp;quot;:&amp;quot;&amp;quot;,&amp;quot;cross_repo_results_included&amp;quot;:&amp;quot;CROSS_REPO_ENABLED&amp;quot;,&amp;quot;in_repo_result_count&amp;quot;:1,&amp;quot;cross_repo_result_count&amp;quot;:0,&amp;quot;originating_url&amp;quot;:&amp;quot;https://github.com/Propolisss/school_code_python/find-definition?q=st&amp;amp;blob_path=classwork%2F01_11_2022%2F12.py&amp;amp;ref=master&amp;amp;language=Python&amp;amp;row=13&amp;amp;col=7&amp;amp;code_nav_context=BLOB_VIEW&amp;quot;,&amp;quot;user_id&amp;quot;:108543596}}&quot; class=&quot;pl-token&quot;&gt;st&lt;/span&gt;&lt;/span&gt;&lt;span style=&quot;color: rgb(201, 209, 217); font-family: ui-monospace, SFMono-Regular, &amp;quot;SF Mono&amp;quot;, Menlo, Consolas, &amp;quot;Liberation Mono&amp;quot;, monospace; text-align: start;&quot;&gt;.&lt;/span&gt;&lt;span style=&quot;box-sizing: border-box; color: var(--color-prettylights-syntax-entity); font-family: ui-monospace, SFMono-Regular, &amp;quot;SF Mono&amp;quot;, Menlo, Consolas, &amp;quot;Liberation Mono&amp;quot;, monospace; text-align: start;&quot; class=&quot;pl-en&quot;&gt;&lt;span style=&quot;box-sizing: border-box;&quot; data-hydro-click-hmac=&quot;91a742d500ea20f4f47009bd6d0bdca72454ec99f429e0309c7ac43e64f2eaec&quot; data-hydro-click=&quot;{&amp;quot;event_type&amp;quot;:&amp;quot;code_navigation.click_on_symbol&amp;quot;,&amp;quot;payload&amp;quot;:{&amp;quot;action&amp;quot;:&amp;quot;click_on_symbol&amp;quot;,&amp;quot;repository_id&amp;quot;:534065516,&amp;quot;ref&amp;quot;:&amp;quot;master&amp;quot;,&amp;quot;language&amp;quot;:&amp;quot;Python&amp;quot;,&amp;quot;backend&amp;quot;:&amp;quot;ALEPH_PRECISE&amp;quot;,&amp;quot;code_nav_context&amp;quot;:&amp;quot;BLOB_VIEW&amp;quot;,&amp;quot;retry_backend&amp;quot;:&amp;quot;&amp;quot;,&amp;quot;cross_repo_results_included&amp;quot;:&amp;quot;CROSS_REPO_ENABLED&amp;quot;,&amp;quot;in_repo_result_count&amp;quot;:0,&amp;quot;cross_repo_result_count&amp;quot;:0,&amp;quot;originating_url&amp;quot;:&amp;quot;https://github.com/Propolisss/school_code_python/find-definition?q=count&amp;amp;blob_path=classwork%2F01_11_2022%2F12.py&amp;amp;ref=master&amp;amp;language=Python&amp;amp;row=13&amp;amp;col=10&amp;amp;code_nav_context=BLOB_VIEW&amp;quot;,&amp;quot;user_id&amp;quot;:108543596}}&quot; class=&quot;pl-token&quot;&gt;count&lt;/span&gt;&lt;/span&gt;&lt;span style=&quot;color: rgb(201, 209, 217); font-family: ui-monospace, SFMono-Regular, &amp;quot;SF Mono&amp;quot;, Menlo, Consolas, &amp;quot;Liberation Mono&amp;quot;, monospace; text-align: start;&quot;&gt;(&lt;/span&gt;&lt;span style=&quot;box-sizing: border-box; color: var(--color-prettylights-syntax-string); font-family: ui-monospace, SFMono-Regular, &amp;quot;SF Mono&amp;quot;, Menlo, Consolas, &amp;quot;Liberation Mono&amp;quot;, monospace; text-align: start;&quot; class=&quot;pl-s&quot;&gt;&#39;5&#39;&lt;/span&gt;&lt;span style=&quot;color: rgb(201, 209, 217); font-family: ui-monospace, SFMono-Regular, &amp;quot;SF Mono&amp;quot;, Menlo, Consolas, &amp;quot;Liberation Mono&amp;quot;, monospace; text-align: start;&quot;&gt;) &lt;/span&gt;&lt;span style=&quot;box-sizing: border-box; color: var(--color-prettylights-syntax-constant); font-family: ui-monospace, SFMono-Regular, &amp;quot;SF Mono&amp;quot;, Menlo, Consolas, &amp;quot;Liberation Mono&amp;quot;, monospace; text-align: start;&quot; class=&quot;pl-c1&quot;&gt;&amp;lt;&lt;/span&gt;&lt;span style=&quot;color: rgb(201, 209, 217); font-family: ui-monospace, SFMono-Regular, &amp;quot;SF Mono&amp;quot;, Menlo, Consolas, &amp;quot;Liberation Mono&amp;quot;, monospace; text-align: start;&quot;&gt; &lt;/span&gt;&lt;span style=&quot;box-sizing: border-box; color: rgb(201, 209, 217); font-family: ui-monospace, SFMono-Regular, &amp;quot;SF Mono&amp;quot;, Menlo, Consolas, &amp;quot;Liberation Mono&amp;quot;, monospace; text-align: start;&quot; class=&quot;pl-s1&quot;&gt;&lt;span style=&quot;box-sizing: border-box;&quot; data-hydro-click-hmac=&quot;d089aedb95829984d518d5c848478a60b7f812540c022d6a0c5094afcf18b678&quot; data-hydro-click=&quot;{&amp;quot;event_type&amp;quot;:&amp;quot;code_navigation.click_on_symbol&amp;quot;,&amp;quot;payload&amp;quot;:{&amp;quot;action&amp;quot;:&amp;quot;click_on_symbol&amp;quot;,&amp;quot;repository_id&amp;quot;:534065516,&amp;quot;ref&amp;quot;:&amp;quot;master&amp;quot;,&amp;quot;language&amp;quot;:&amp;quot;Python&amp;quot;,&amp;quot;backend&amp;quot;:&amp;quot;ALEPH_PRECISE&amp;quot;,&amp;quot;code_nav_context&amp;quot;:&amp;quot;BLOB_VIEW&amp;quot;,&amp;quot;retry_backend&amp;quot;:&amp;quot;&amp;quot;,&amp;quot;cross_repo_results_included&amp;quot;:&amp;quot;CROSS_REPO_ENABLED&amp;quot;,&amp;quot;in_repo_result_count&amp;quot;:1,&amp;quot;cross_repo_result_count&amp;quot;:0,&amp;quot;originating_url&amp;quot;:&amp;quot;https://github.com/Propolisss/school_code_python/find-definition?q=minn_five&amp;amp;blob_path=classwork%2F01_11_2022%2F12.py&amp;amp;ref=master&amp;amp;language=Python&amp;amp;row=13&amp;amp;col=23&amp;amp;code_nav_context=BLOB_VIEW&amp;quot;,&amp;quot;user_id&amp;quot;:108543596}}&quot; class=&quot;pl-token&quot;&gt;minn_five&lt;/span&gt;&lt;/span&gt;&lt;span style=&quot;color: rgb(201, 209, 217); font-family: ui-monospace, SFMono-Regular, &amp;quot;SF Mono&amp;quot;, Menlo, Consolas, &amp;quot;Liberation Mono&amp;quot;, monospace; text-align: start;&quot;&gt;:&lt;/span&gt;" style="rhombus;whiteSpace=wrap;html=1;labelBackgroundColor=none;" vertex="1" parent="1">
          <mxGeometry x="800" y="695" width="180" height="160" as="geometry" />
        </mxCell>
        <mxCell id="bL9SBz04uiBQj-h55vJ3-30" style="edgeStyle=orthogonalEdgeStyle;rounded=0;orthogonalLoop=1;jettySize=auto;html=1;entryX=0;entryY=0.5;entryDx=0;entryDy=0;labelBackgroundColor=none;" edge="1" parent="1" source="bL9SBz04uiBQj-h55vJ3-26" target="bL9SBz04uiBQj-h55vJ3-24">
          <mxGeometry relative="1" as="geometry">
            <Array as="points">
              <mxPoint x="780" y="1040" />
              <mxPoint x="780" y="775" />
            </Array>
          </mxGeometry>
        </mxCell>
        <mxCell id="bL9SBz04uiBQj-h55vJ3-26" value="&lt;span style=&quot;box-sizing: border-box; color: rgb(201, 209, 217); font-family: ui-monospace, SFMono-Regular, &amp;quot;SF Mono&amp;quot;, Menlo, Consolas, &amp;quot;Liberation Mono&amp;quot;, monospace; text-align: start;&quot; class=&quot;pl-s1&quot;&gt;&lt;span style=&quot;box-sizing: border-box;&quot; data-hydro-click-hmac=&quot;cf6a22b82a33fe67016af207890988d15cd9a2fe88ba28539106888a857884e8&quot; data-hydro-click=&quot;{&amp;quot;event_type&amp;quot;:&amp;quot;code_navigation.click_on_symbol&amp;quot;,&amp;quot;payload&amp;quot;:{&amp;quot;action&amp;quot;:&amp;quot;click_on_symbol&amp;quot;,&amp;quot;repository_id&amp;quot;:534065516,&amp;quot;ref&amp;quot;:&amp;quot;master&amp;quot;,&amp;quot;language&amp;quot;:&amp;quot;Python&amp;quot;,&amp;quot;backend&amp;quot;:&amp;quot;ALEPH_PRECISE&amp;quot;,&amp;quot;code_nav_context&amp;quot;:&amp;quot;BLOB_VIEW&amp;quot;,&amp;quot;retry_backend&amp;quot;:&amp;quot;&amp;quot;,&amp;quot;cross_repo_results_included&amp;quot;:&amp;quot;CROSS_REPO_ENABLED&amp;quot;,&amp;quot;in_repo_result_count&amp;quot;:1,&amp;quot;cross_repo_result_count&amp;quot;:0,&amp;quot;originating_url&amp;quot;:&amp;quot;https://github.com/Propolisss/school_code_python/find-definition?q=minn_len&amp;amp;blob_path=classwork%2F01_11_2022%2F12.py&amp;amp;ref=master&amp;amp;language=Python&amp;amp;row=15&amp;amp;col=8&amp;amp;code_nav_context=BLOB_VIEW&amp;quot;,&amp;quot;user_id&amp;quot;:108543596}}&quot; class=&quot;pl-token&quot;&gt;minn_len&lt;/span&gt;&lt;/span&gt;&lt;span style=&quot;color: rgb(201, 209, 217); font-family: ui-monospace, SFMono-Regular, &amp;quot;SF Mono&amp;quot;, Menlo, Consolas, &amp;quot;Liberation Mono&amp;quot;, monospace; text-align: start;&quot;&gt; &lt;/span&gt;&lt;span style=&quot;box-sizing: border-box; color: var(--color-prettylights-syntax-constant); font-family: ui-monospace, SFMono-Regular, &amp;quot;SF Mono&amp;quot;, Menlo, Consolas, &amp;quot;Liberation Mono&amp;quot;, monospace; text-align: start;&quot; class=&quot;pl-c1&quot;&gt;=&lt;/span&gt;&lt;span style=&quot;color: rgb(201, 209, 217); font-family: ui-monospace, SFMono-Regular, &amp;quot;SF Mono&amp;quot;, Menlo, Consolas, &amp;quot;Liberation Mono&amp;quot;, monospace; text-align: start;&quot;&gt; &lt;/span&gt;&lt;span style=&quot;box-sizing: border-box; color: rgb(201, 209, 217); font-family: ui-monospace, SFMono-Regular, &amp;quot;SF Mono&amp;quot;, Menlo, Consolas, &amp;quot;Liberation Mono&amp;quot;, monospace; text-align: start;&quot; class=&quot;pl-s1&quot;&gt;&lt;span style=&quot;box-sizing: border-box;&quot; data-hydro-click-hmac=&quot;c06be1357e016d04395116924a2cbc29fef5ab9ece3b26026119c9546c3b5654&quot; data-hydro-click=&quot;{&amp;quot;event_type&amp;quot;:&amp;quot;code_navigation.click_on_symbol&amp;quot;,&amp;quot;payload&amp;quot;:{&amp;quot;action&amp;quot;:&amp;quot;click_on_symbol&amp;quot;,&amp;quot;repository_id&amp;quot;:534065516,&amp;quot;ref&amp;quot;:&amp;quot;master&amp;quot;,&amp;quot;language&amp;quot;:&amp;quot;Python&amp;quot;,&amp;quot;backend&amp;quot;:&amp;quot;ALEPH_PRECISE&amp;quot;,&amp;quot;code_nav_context&amp;quot;:&amp;quot;BLOB_VIEW&amp;quot;,&amp;quot;retry_backend&amp;quot;:&amp;quot;&amp;quot;,&amp;quot;cross_repo_results_included&amp;quot;:&amp;quot;CROSS_REPO_ENABLED&amp;quot;,&amp;quot;in_repo_result_count&amp;quot;:1,&amp;quot;cross_repo_result_count&amp;quot;:0,&amp;quot;originating_url&amp;quot;:&amp;quot;https://github.com/Propolisss/school_code_python/find-definition?q=len_st&amp;amp;blob_path=classwork%2F01_11_2022%2F12.py&amp;amp;ref=master&amp;amp;language=Python&amp;amp;row=15&amp;amp;col=19&amp;amp;code_nav_context=BLOB_VIEW&amp;quot;,&amp;quot;user_id&amp;quot;:108543596}}&quot; class=&quot;pl-token&quot;&gt;len_st&lt;/span&gt;&lt;/span&gt;" style="rounded=0;whiteSpace=wrap;html=1;labelBackgroundColor=none;" vertex="1" parent="1">
          <mxGeometry x="810" y="1010" width="160" height="60" as="geometry" />
        </mxCell>
        <mxCell id="bL9SBz04uiBQj-h55vJ3-29" value="" style="edgeStyle=orthogonalEdgeStyle;rounded=0;orthogonalLoop=1;jettySize=auto;html=1;labelBackgroundColor=none;" edge="1" parent="1" source="bL9SBz04uiBQj-h55vJ3-27" target="bL9SBz04uiBQj-h55vJ3-26">
          <mxGeometry relative="1" as="geometry" />
        </mxCell>
        <mxCell id="bL9SBz04uiBQj-h55vJ3-27" value="&lt;span style=&quot;box-sizing: border-box; color: rgb(201, 209, 217); font-family: ui-monospace, SFMono-Regular, &amp;quot;SF Mono&amp;quot;, Menlo, Consolas, &amp;quot;Liberation Mono&amp;quot;, monospace; text-align: start;&quot; class=&quot;pl-s1&quot;&gt;&lt;span style=&quot;box-sizing: border-box;&quot; data-hydro-click-hmac=&quot;8c68671fef17a6e4d396a70b1b42f65e73a7af606f0e562c6291bbf2fc22ab07&quot; data-hydro-click=&quot;{&amp;quot;event_type&amp;quot;:&amp;quot;code_navigation.click_on_symbol&amp;quot;,&amp;quot;payload&amp;quot;:{&amp;quot;action&amp;quot;:&amp;quot;click_on_symbol&amp;quot;,&amp;quot;repository_id&amp;quot;:534065516,&amp;quot;ref&amp;quot;:&amp;quot;master&amp;quot;,&amp;quot;language&amp;quot;:&amp;quot;Python&amp;quot;,&amp;quot;backend&amp;quot;:&amp;quot;ALEPH_PRECISE&amp;quot;,&amp;quot;code_nav_context&amp;quot;:&amp;quot;BLOB_VIEW&amp;quot;,&amp;quot;retry_backend&amp;quot;:&amp;quot;&amp;quot;,&amp;quot;cross_repo_results_included&amp;quot;:&amp;quot;CROSS_REPO_ENABLED&amp;quot;,&amp;quot;in_repo_result_count&amp;quot;:1,&amp;quot;cross_repo_result_count&amp;quot;:0,&amp;quot;originating_url&amp;quot;:&amp;quot;https://github.com/Propolisss/school_code_python/find-definition?q=minn_five&amp;amp;blob_path=classwork%2F01_11_2022%2F12.py&amp;amp;ref=master&amp;amp;language=Python&amp;amp;row=14&amp;amp;col=8&amp;amp;code_nav_context=BLOB_VIEW&amp;quot;,&amp;quot;user_id&amp;quot;:108543596}}&quot; class=&quot;pl-token&quot;&gt;minn_five&lt;/span&gt;&lt;/span&gt;&lt;span style=&quot;color: rgb(201, 209, 217); font-family: ui-monospace, SFMono-Regular, &amp;quot;SF Mono&amp;quot;, Menlo, Consolas, &amp;quot;Liberation Mono&amp;quot;, monospace; text-align: start;&quot;&gt; &lt;/span&gt;&lt;span style=&quot;box-sizing: border-box; color: var(--color-prettylights-syntax-constant); font-family: ui-monospace, SFMono-Regular, &amp;quot;SF Mono&amp;quot;, Menlo, Consolas, &amp;quot;Liberation Mono&amp;quot;, monospace; text-align: start;&quot; class=&quot;pl-c1&quot;&gt;=&lt;/span&gt;&lt;span style=&quot;color: rgb(201, 209, 217); font-family: ui-monospace, SFMono-Regular, &amp;quot;SF Mono&amp;quot;, Menlo, Consolas, &amp;quot;Liberation Mono&amp;quot;, monospace; text-align: start;&quot;&gt; &lt;/span&gt;&lt;span style=&quot;box-sizing: border-box; color: rgb(201, 209, 217); font-family: ui-monospace, SFMono-Regular, &amp;quot;SF Mono&amp;quot;, Menlo, Consolas, &amp;quot;Liberation Mono&amp;quot;, monospace; text-align: start;&quot; class=&quot;pl-s1&quot;&gt;&lt;span style=&quot;box-sizing: border-box;&quot; data-hydro-click-hmac=&quot;2f79201fb8acbe60162be2cfacab549da44b565168432fa964df12fd3e932fc4&quot; data-hydro-click=&quot;{&amp;quot;event_type&amp;quot;:&amp;quot;code_navigation.click_on_symbol&amp;quot;,&amp;quot;payload&amp;quot;:{&amp;quot;action&amp;quot;:&amp;quot;click_on_symbol&amp;quot;,&amp;quot;repository_id&amp;quot;:534065516,&amp;quot;ref&amp;quot;:&amp;quot;master&amp;quot;,&amp;quot;language&amp;quot;:&amp;quot;Python&amp;quot;,&amp;quot;backend&amp;quot;:&amp;quot;ALEPH_PRECISE&amp;quot;,&amp;quot;code_nav_context&amp;quot;:&amp;quot;BLOB_VIEW&amp;quot;,&amp;quot;retry_backend&amp;quot;:&amp;quot;&amp;quot;,&amp;quot;cross_repo_results_included&amp;quot;:&amp;quot;CROSS_REPO_ENABLED&amp;quot;,&amp;quot;in_repo_result_count&amp;quot;:1,&amp;quot;cross_repo_result_count&amp;quot;:0,&amp;quot;originating_url&amp;quot;:&amp;quot;https://github.com/Propolisss/school_code_python/find-definition?q=st&amp;amp;blob_path=classwork%2F01_11_2022%2F12.py&amp;amp;ref=master&amp;amp;language=Python&amp;amp;row=14&amp;amp;col=20&amp;amp;code_nav_context=BLOB_VIEW&amp;quot;,&amp;quot;user_id&amp;quot;:108543596}}&quot; class=&quot;pl-token&quot;&gt;st&lt;/span&gt;&lt;/span&gt;&lt;span style=&quot;color: rgb(201, 209, 217); font-family: ui-monospace, SFMono-Regular, &amp;quot;SF Mono&amp;quot;, Menlo, Consolas, &amp;quot;Liberation Mono&amp;quot;, monospace; text-align: start;&quot;&gt;.&lt;/span&gt;&lt;span style=&quot;box-sizing: border-box; color: var(--color-prettylights-syntax-entity); font-family: ui-monospace, SFMono-Regular, &amp;quot;SF Mono&amp;quot;, Menlo, Consolas, &amp;quot;Liberation Mono&amp;quot;, monospace; text-align: start;&quot; class=&quot;pl-en&quot;&gt;&lt;span style=&quot;box-sizing: border-box;&quot; data-hydro-click-hmac=&quot;2bf9cc25d982249cd58c793c8dd25578109f4e0edd2dc47214382ed47fac1a5e&quot; data-hydro-click=&quot;{&amp;quot;event_type&amp;quot;:&amp;quot;code_navigation.click_on_symbol&amp;quot;,&amp;quot;payload&amp;quot;:{&amp;quot;action&amp;quot;:&amp;quot;click_on_symbol&amp;quot;,&amp;quot;repository_id&amp;quot;:534065516,&amp;quot;ref&amp;quot;:&amp;quot;master&amp;quot;,&amp;quot;language&amp;quot;:&amp;quot;Python&amp;quot;,&amp;quot;backend&amp;quot;:&amp;quot;ALEPH_PRECISE&amp;quot;,&amp;quot;code_nav_context&amp;quot;:&amp;quot;BLOB_VIEW&amp;quot;,&amp;quot;retry_backend&amp;quot;:&amp;quot;&amp;quot;,&amp;quot;cross_repo_results_included&amp;quot;:&amp;quot;CROSS_REPO_ENABLED&amp;quot;,&amp;quot;in_repo_result_count&amp;quot;:0,&amp;quot;cross_repo_result_count&amp;quot;:0,&amp;quot;originating_url&amp;quot;:&amp;quot;https://github.com/Propolisss/school_code_python/find-definition?q=count&amp;amp;blob_path=classwork%2F01_11_2022%2F12.py&amp;amp;ref=master&amp;amp;language=Python&amp;amp;row=14&amp;amp;col=23&amp;amp;code_nav_context=BLOB_VIEW&amp;quot;,&amp;quot;user_id&amp;quot;:108543596}}&quot; class=&quot;pl-token&quot;&gt;count&lt;/span&gt;&lt;/span&gt;&lt;span style=&quot;color: rgb(201, 209, 217); font-family: ui-monospace, SFMono-Regular, &amp;quot;SF Mono&amp;quot;, Menlo, Consolas, &amp;quot;Liberation Mono&amp;quot;, monospace; text-align: start;&quot;&gt;(&lt;/span&gt;&lt;span style=&quot;box-sizing: border-box; color: var(--color-prettylights-syntax-string); font-family: ui-monospace, SFMono-Regular, &amp;quot;SF Mono&amp;quot;, Menlo, Consolas, &amp;quot;Liberation Mono&amp;quot;, monospace; text-align: start;&quot; class=&quot;pl-s&quot;&gt;&#39;5&#39;&lt;/span&gt;&lt;span style=&quot;color: rgb(201, 209, 217); font-family: ui-monospace, SFMono-Regular, &amp;quot;SF Mono&amp;quot;, Menlo, Consolas, &amp;quot;Liberation Mono&amp;quot;, monospace; text-align: start;&quot;&gt;)&lt;/span&gt;" style="rounded=0;whiteSpace=wrap;html=1;labelBackgroundColor=none;" vertex="1" parent="1">
          <mxGeometry x="797.5" y="900" width="185" height="60" as="geometry" />
        </mxCell>
        <mxCell id="bL9SBz04uiBQj-h55vJ3-36" value="" style="edgeStyle=orthogonalEdgeStyle;rounded=0;orthogonalLoop=1;jettySize=auto;html=1;labelBackgroundColor=none;" edge="1" parent="1" source="bL9SBz04uiBQj-h55vJ3-33" target="bL9SBz04uiBQj-h55vJ3-35">
          <mxGeometry relative="1" as="geometry" />
        </mxCell>
        <mxCell id="bL9SBz04uiBQj-h55vJ3-41" style="edgeStyle=orthogonalEdgeStyle;rounded=0;orthogonalLoop=1;jettySize=auto;html=1;entryX=0;entryY=0.5;entryDx=0;entryDy=0;labelBackgroundColor=none;" edge="1" parent="1" source="bL9SBz04uiBQj-h55vJ3-33" target="bL9SBz04uiBQj-h55vJ3-6">
          <mxGeometry relative="1" as="geometry">
            <Array as="points">
              <mxPoint x="1320" y="775" />
              <mxPoint x="1320" y="1120" />
              <mxPoint x="380" y="1120" />
              <mxPoint x="380" y="440" />
            </Array>
          </mxGeometry>
        </mxCell>
        <mxCell id="bL9SBz04uiBQj-h55vJ3-33" value="&lt;span style=&quot;box-sizing: border-box; color: var(--color-prettylights-syntax-keyword); font-family: ui-monospace, SFMono-Regular, &amp;quot;SF Mono&amp;quot;, Menlo, Consolas, &amp;quot;Liberation Mono&amp;quot;, monospace; text-align: start;&quot; class=&quot;pl-k&quot;&gt;if&lt;/span&gt;&lt;span style=&quot;color: rgb(201, 209, 217); font-family: ui-monospace, SFMono-Regular, &amp;quot;SF Mono&amp;quot;, Menlo, Consolas, &amp;quot;Liberation Mono&amp;quot;, monospace; text-align: start;&quot;&gt; &lt;/span&gt;&lt;span style=&quot;box-sizing: border-box; color: rgb(201, 209, 217); font-family: ui-monospace, SFMono-Regular, &amp;quot;SF Mono&amp;quot;, Menlo, Consolas, &amp;quot;Liberation Mono&amp;quot;, monospace; text-align: start;&quot; class=&quot;pl-s1&quot;&gt;&lt;span style=&quot;box-sizing: border-box;&quot; data-hydro-click-hmac=&quot;e98f1aacbf964cbe2ea754da760e9a32a6e736d0374ca2a8d482358849cceb6e&quot; data-hydro-click=&quot;{&amp;quot;event_type&amp;quot;:&amp;quot;code_navigation.click_on_symbol&amp;quot;,&amp;quot;payload&amp;quot;:{&amp;quot;action&amp;quot;:&amp;quot;click_on_symbol&amp;quot;,&amp;quot;repository_id&amp;quot;:534065516,&amp;quot;ref&amp;quot;:&amp;quot;master&amp;quot;,&amp;quot;language&amp;quot;:&amp;quot;Python&amp;quot;,&amp;quot;backend&amp;quot;:&amp;quot;ALEPH_PRECISE&amp;quot;,&amp;quot;code_nav_context&amp;quot;:&amp;quot;BLOB_VIEW&amp;quot;,&amp;quot;retry_backend&amp;quot;:&amp;quot;&amp;quot;,&amp;quot;cross_repo_results_included&amp;quot;:&amp;quot;CROSS_REPO_ENABLED&amp;quot;,&amp;quot;in_repo_result_count&amp;quot;:1,&amp;quot;cross_repo_result_count&amp;quot;:0,&amp;quot;originating_url&amp;quot;:&amp;quot;https://github.com/Propolisss/school_code_python/find-definition?q=st&amp;amp;blob_path=classwork%2F01_11_2022%2F12.py&amp;amp;ref=master&amp;amp;language=Python&amp;amp;row=16&amp;amp;col=7&amp;amp;code_nav_context=BLOB_VIEW&amp;quot;,&amp;quot;user_id&amp;quot;:108543596}}&quot; class=&quot;pl-token&quot;&gt;st&lt;/span&gt;&lt;/span&gt;&lt;span style=&quot;color: rgb(201, 209, 217); font-family: ui-monospace, SFMono-Regular, &amp;quot;SF Mono&amp;quot;, Menlo, Consolas, &amp;quot;Liberation Mono&amp;quot;, monospace; text-align: start;&quot;&gt;.&lt;/span&gt;&lt;span style=&quot;box-sizing: border-box; color: var(--color-prettylights-syntax-entity); font-family: ui-monospace, SFMono-Regular, &amp;quot;SF Mono&amp;quot;, Menlo, Consolas, &amp;quot;Liberation Mono&amp;quot;, monospace; text-align: start;&quot; class=&quot;pl-en&quot;&gt;&lt;span style=&quot;box-sizing: border-box;&quot; data-hydro-click-hmac=&quot;50a27104380042d83d8917ecc38bf4744dcc1ac0b91438d525aec5c00f7a34b7&quot; data-hydro-click=&quot;{&amp;quot;event_type&amp;quot;:&amp;quot;code_navigation.click_on_symbol&amp;quot;,&amp;quot;payload&amp;quot;:{&amp;quot;action&amp;quot;:&amp;quot;click_on_symbol&amp;quot;,&amp;quot;repository_id&amp;quot;:534065516,&amp;quot;ref&amp;quot;:&amp;quot;master&amp;quot;,&amp;quot;language&amp;quot;:&amp;quot;Python&amp;quot;,&amp;quot;backend&amp;quot;:&amp;quot;ALEPH_PRECISE&amp;quot;,&amp;quot;code_nav_context&amp;quot;:&amp;quot;BLOB_VIEW&amp;quot;,&amp;quot;retry_backend&amp;quot;:&amp;quot;&amp;quot;,&amp;quot;cross_repo_results_included&amp;quot;:&amp;quot;CROSS_REPO_ENABLED&amp;quot;,&amp;quot;in_repo_result_count&amp;quot;:0,&amp;quot;cross_repo_result_count&amp;quot;:0,&amp;quot;originating_url&amp;quot;:&amp;quot;https://github.com/Propolisss/school_code_python/find-definition?q=count&amp;amp;blob_path=classwork%2F01_11_2022%2F12.py&amp;amp;ref=master&amp;amp;language=Python&amp;amp;row=16&amp;amp;col=10&amp;amp;code_nav_context=BLOB_VIEW&amp;quot;,&amp;quot;user_id&amp;quot;:108543596}}&quot; class=&quot;pl-token&quot;&gt;count&lt;/span&gt;&lt;/span&gt;&lt;span style=&quot;color: rgb(201, 209, 217); font-family: ui-monospace, SFMono-Regular, &amp;quot;SF Mono&amp;quot;, Menlo, Consolas, &amp;quot;Liberation Mono&amp;quot;, monospace; text-align: start;&quot;&gt;(&lt;/span&gt;&lt;span style=&quot;box-sizing: border-box; color: var(--color-prettylights-syntax-string); font-family: ui-monospace, SFMono-Regular, &amp;quot;SF Mono&amp;quot;, Menlo, Consolas, &amp;quot;Liberation Mono&amp;quot;, monospace; text-align: start;&quot; class=&quot;pl-s&quot;&gt;&#39;5&#39;&lt;/span&gt;&lt;span style=&quot;color: rgb(201, 209, 217); font-family: ui-monospace, SFMono-Regular, &amp;quot;SF Mono&amp;quot;, Menlo, Consolas, &amp;quot;Liberation Mono&amp;quot;, monospace; text-align: start;&quot;&gt;) &lt;/span&gt;&lt;span style=&quot;box-sizing: border-box; color: var(--color-prettylights-syntax-constant); font-family: ui-monospace, SFMono-Regular, &amp;quot;SF Mono&amp;quot;, Menlo, Consolas, &amp;quot;Liberation Mono&amp;quot;, monospace; text-align: start;&quot; class=&quot;pl-c1&quot;&gt;==&lt;/span&gt;&lt;span style=&quot;color: rgb(201, 209, 217); font-family: ui-monospace, SFMono-Regular, &amp;quot;SF Mono&amp;quot;, Menlo, Consolas, &amp;quot;Liberation Mono&amp;quot;, monospace; text-align: start;&quot;&gt;  &lt;/span&gt;&lt;span style=&quot;box-sizing: border-box; color: rgb(201, 209, 217); font-family: ui-monospace, SFMono-Regular, &amp;quot;SF Mono&amp;quot;, Menlo, Consolas, &amp;quot;Liberation Mono&amp;quot;, monospace; text-align: start;&quot; class=&quot;pl-s1&quot;&gt;&lt;span style=&quot;box-sizing: border-box;&quot; data-hydro-click-hmac=&quot;e8500850840040c9e1cc8736ba4db4ccccf547f887ce639f8fd33a9708a56273&quot; data-hydro-click=&quot;{&amp;quot;event_type&amp;quot;:&amp;quot;code_navigation.click_on_symbol&amp;quot;,&amp;quot;payload&amp;quot;:{&amp;quot;action&amp;quot;:&amp;quot;click_on_symbol&amp;quot;,&amp;quot;repository_id&amp;quot;:534065516,&amp;quot;ref&amp;quot;:&amp;quot;master&amp;quot;,&amp;quot;language&amp;quot;:&amp;quot;Python&amp;quot;,&amp;quot;backend&amp;quot;:&amp;quot;ALEPH_PRECISE&amp;quot;,&amp;quot;code_nav_context&amp;quot;:&amp;quot;BLOB_VIEW&amp;quot;,&amp;quot;retry_backend&amp;quot;:&amp;quot;&amp;quot;,&amp;quot;cross_repo_results_included&amp;quot;:&amp;quot;CROSS_REPO_ENABLED&amp;quot;,&amp;quot;in_repo_result_count&amp;quot;:1,&amp;quot;cross_repo_result_count&amp;quot;:0,&amp;quot;originating_url&amp;quot;:&amp;quot;https://github.com/Propolisss/school_code_python/find-definition?q=minn_five&amp;amp;blob_path=classwork%2F01_11_2022%2F12.py&amp;amp;ref=master&amp;amp;language=Python&amp;amp;row=16&amp;amp;col=25&amp;amp;code_nav_context=BLOB_VIEW&amp;quot;,&amp;quot;user_id&amp;quot;:108543596}}&quot; class=&quot;pl-token&quot;&gt;minn_five&lt;/span&gt;&lt;/span&gt;&lt;span style=&quot;color: rgb(201, 209, 217); font-family: ui-monospace, SFMono-Regular, &amp;quot;SF Mono&amp;quot;, Menlo, Consolas, &amp;quot;Liberation Mono&amp;quot;, monospace; text-align: start;&quot;&gt;:&lt;/span&gt;" style="rhombus;whiteSpace=wrap;html=1;labelBackgroundColor=none;" vertex="1" parent="1">
          <mxGeometry x="1060" y="692.5" width="230" height="165" as="geometry" />
        </mxCell>
        <mxCell id="bL9SBz04uiBQj-h55vJ3-35" value="&lt;span style=&quot;box-sizing: border-box; color: rgb(201, 209, 217); font-family: ui-monospace, SFMono-Regular, &amp;quot;SF Mono&amp;quot;, Menlo, Consolas, &amp;quot;Liberation Mono&amp;quot;, monospace; text-align: start;&quot; class=&quot;pl-s1&quot;&gt;&lt;span style=&quot;box-sizing: border-box;&quot; data-hydro-click-hmac=&quot;718b84ca4d288a064c10825acea3bd85302ab28c8b6919264d8cba4f24b7c841&quot; data-hydro-click=&quot;{&amp;quot;event_type&amp;quot;:&amp;quot;code_navigation.click_on_symbol&amp;quot;,&amp;quot;payload&amp;quot;:{&amp;quot;action&amp;quot;:&amp;quot;click_on_symbol&amp;quot;,&amp;quot;repository_id&amp;quot;:534065516,&amp;quot;ref&amp;quot;:&amp;quot;master&amp;quot;,&amp;quot;language&amp;quot;:&amp;quot;Python&amp;quot;,&amp;quot;backend&amp;quot;:&amp;quot;ALEPH_PRECISE&amp;quot;,&amp;quot;code_nav_context&amp;quot;:&amp;quot;BLOB_VIEW&amp;quot;,&amp;quot;retry_backend&amp;quot;:&amp;quot;&amp;quot;,&amp;quot;cross_repo_results_included&amp;quot;:&amp;quot;CROSS_REPO_ENABLED&amp;quot;,&amp;quot;in_repo_result_count&amp;quot;:1,&amp;quot;cross_repo_result_count&amp;quot;:0,&amp;quot;originating_url&amp;quot;:&amp;quot;https://github.com/Propolisss/school_code_python/find-definition?q=minn_len&amp;amp;blob_path=classwork%2F01_11_2022%2F12.py&amp;amp;ref=master&amp;amp;language=Python&amp;amp;row=17&amp;amp;col=8&amp;amp;code_nav_context=BLOB_VIEW&amp;quot;,&amp;quot;user_id&amp;quot;:108543596}}&quot; class=&quot;pl-token&quot;&gt;minn_len&lt;/span&gt;&lt;/span&gt;&lt;span style=&quot;color: rgb(201, 209, 217); font-family: ui-monospace, SFMono-Regular, &amp;quot;SF Mono&amp;quot;, Menlo, Consolas, &amp;quot;Liberation Mono&amp;quot;, monospace; text-align: start;&quot;&gt; &lt;/span&gt;&lt;span style=&quot;box-sizing: border-box; color: var(--color-prettylights-syntax-constant); font-family: ui-monospace, SFMono-Regular, &amp;quot;SF Mono&amp;quot;, Menlo, Consolas, &amp;quot;Liberation Mono&amp;quot;, monospace; text-align: start;&quot; class=&quot;pl-c1&quot;&gt;=&lt;/span&gt;&lt;span style=&quot;color: rgb(201, 209, 217); font-family: ui-monospace, SFMono-Regular, &amp;quot;SF Mono&amp;quot;, Menlo, Consolas, &amp;quot;Liberation Mono&amp;quot;, monospace; text-align: start;&quot;&gt; &lt;/span&gt;&lt;span style=&quot;box-sizing: border-box; color: var(--color-prettylights-syntax-entity); font-family: ui-monospace, SFMono-Regular, &amp;quot;SF Mono&amp;quot;, Menlo, Consolas, &amp;quot;Liberation Mono&amp;quot;, monospace; text-align: start;&quot; class=&quot;pl-en&quot;&gt;&lt;span style=&quot;box-sizing: border-box;&quot; data-hydro-click-hmac=&quot;14d5dc5eea0ecb0b1323e8e087895d78f667f4a892607c655bd046160383a7cd&quot; data-hydro-click=&quot;{&amp;quot;event_type&amp;quot;:&amp;quot;code_navigation.click_on_symbol&amp;quot;,&amp;quot;payload&amp;quot;:{&amp;quot;action&amp;quot;:&amp;quot;click_on_symbol&amp;quot;,&amp;quot;repository_id&amp;quot;:534065516,&amp;quot;ref&amp;quot;:&amp;quot;master&amp;quot;,&amp;quot;language&amp;quot;:&amp;quot;Python&amp;quot;,&amp;quot;backend&amp;quot;:&amp;quot;ALEPH_PRECISE&amp;quot;,&amp;quot;code_nav_context&amp;quot;:&amp;quot;BLOB_VIEW&amp;quot;,&amp;quot;retry_backend&amp;quot;:&amp;quot;&amp;quot;,&amp;quot;cross_repo_results_included&amp;quot;:&amp;quot;CROSS_REPO_ENABLED&amp;quot;,&amp;quot;in_repo_result_count&amp;quot;:0,&amp;quot;cross_repo_result_count&amp;quot;:0,&amp;quot;originating_url&amp;quot;:&amp;quot;https://github.com/Propolisss/school_code_python/find-definition?q=min&amp;amp;blob_path=classwork%2F01_11_2022%2F12.py&amp;amp;ref=master&amp;amp;language=Python&amp;amp;row=17&amp;amp;col=19&amp;amp;code_nav_context=BLOB_VIEW&amp;quot;,&amp;quot;user_id&amp;quot;:108543596}}&quot; class=&quot;pl-token&quot;&gt;min&lt;/span&gt;&lt;/span&gt;&lt;span style=&quot;color: rgb(201, 209, 217); font-family: ui-monospace, SFMono-Regular, &amp;quot;SF Mono&amp;quot;, Menlo, Consolas, &amp;quot;Liberation Mono&amp;quot;, monospace; text-align: start;&quot;&gt;(&lt;/span&gt;&lt;span style=&quot;box-sizing: border-box; color: rgb(201, 209, 217); font-family: ui-monospace, SFMono-Regular, &amp;quot;SF Mono&amp;quot;, Menlo, Consolas, &amp;quot;Liberation Mono&amp;quot;, monospace; text-align: start;&quot; class=&quot;pl-s1&quot;&gt;&lt;span style=&quot;box-sizing: border-box;&quot; data-hydro-click-hmac=&quot;7a6fdc6a4e2823d939595fd6742bc385a53d8ef925848234b6c5aa3e9950a97b&quot; data-hydro-click=&quot;{&amp;quot;event_type&amp;quot;:&amp;quot;code_navigation.click_on_symbol&amp;quot;,&amp;quot;payload&amp;quot;:{&amp;quot;action&amp;quot;:&amp;quot;click_on_symbol&amp;quot;,&amp;quot;repository_id&amp;quot;:534065516,&amp;quot;ref&amp;quot;:&amp;quot;master&amp;quot;,&amp;quot;language&amp;quot;:&amp;quot;Python&amp;quot;,&amp;quot;backend&amp;quot;:&amp;quot;ALEPH_PRECISE&amp;quot;,&amp;quot;code_nav_context&amp;quot;:&amp;quot;BLOB_VIEW&amp;quot;,&amp;quot;retry_backend&amp;quot;:&amp;quot;&amp;quot;,&amp;quot;cross_repo_results_included&amp;quot;:&amp;quot;CROSS_REPO_ENABLED&amp;quot;,&amp;quot;in_repo_result_count&amp;quot;:1,&amp;quot;cross_repo_result_count&amp;quot;:0,&amp;quot;originating_url&amp;quot;:&amp;quot;https://github.com/Propolisss/school_code_python/find-definition?q=minn_len&amp;amp;blob_path=classwork%2F01_11_2022%2F12.py&amp;amp;ref=master&amp;amp;language=Python&amp;amp;row=17&amp;amp;col=23&amp;amp;code_nav_context=BLOB_VIEW&amp;quot;,&amp;quot;user_id&amp;quot;:108543596}}&quot; class=&quot;pl-token&quot;&gt;minn_len&lt;/span&gt;&lt;/span&gt;&lt;span style=&quot;color: rgb(201, 209, 217); font-family: ui-monospace, SFMono-Regular, &amp;quot;SF Mono&amp;quot;, Menlo, Consolas, &amp;quot;Liberation Mono&amp;quot;, monospace; text-align: start;&quot;&gt;, &lt;/span&gt;&lt;span style=&quot;box-sizing: border-box; color: rgb(201, 209, 217); font-family: ui-monospace, SFMono-Regular, &amp;quot;SF Mono&amp;quot;, Menlo, Consolas, &amp;quot;Liberation Mono&amp;quot;, monospace; text-align: start;&quot; class=&quot;pl-s1&quot;&gt;&lt;span style=&quot;box-sizing: border-box;&quot; data-hydro-click-hmac=&quot;c44403ff773bc6955f9c90728e7ab766b8be12848ff840285b3dc4db5f2a264f&quot; data-hydro-click=&quot;{&amp;quot;event_type&amp;quot;:&amp;quot;code_navigation.click_on_symbol&amp;quot;,&amp;quot;payload&amp;quot;:{&amp;quot;action&amp;quot;:&amp;quot;click_on_symbol&amp;quot;,&amp;quot;repository_id&amp;quot;:534065516,&amp;quot;ref&amp;quot;:&amp;quot;master&amp;quot;,&amp;quot;language&amp;quot;:&amp;quot;Python&amp;quot;,&amp;quot;backend&amp;quot;:&amp;quot;ALEPH_PRECISE&amp;quot;,&amp;quot;code_nav_context&amp;quot;:&amp;quot;BLOB_VIEW&amp;quot;,&amp;quot;retry_backend&amp;quot;:&amp;quot;&amp;quot;,&amp;quot;cross_repo_results_included&amp;quot;:&amp;quot;CROSS_REPO_ENABLED&amp;quot;,&amp;quot;in_repo_result_count&amp;quot;:1,&amp;quot;cross_repo_result_count&amp;quot;:0,&amp;quot;originating_url&amp;quot;:&amp;quot;https://github.com/Propolisss/school_code_python/find-definition?q=len_st&amp;amp;blob_path=classwork%2F01_11_2022%2F12.py&amp;amp;ref=master&amp;amp;language=Python&amp;amp;row=17&amp;amp;col=33&amp;amp;code_nav_context=BLOB_VIEW&amp;quot;,&amp;quot;user_id&amp;quot;:108543596}}&quot; class=&quot;pl-token&quot;&gt;len_st&lt;/span&gt;&lt;/span&gt;&lt;span style=&quot;color: rgb(201, 209, 217); font-family: ui-monospace, SFMono-Regular, &amp;quot;SF Mono&amp;quot;, Menlo, Consolas, &amp;quot;Liberation Mono&amp;quot;, monospace; text-align: start;&quot;&gt;)&lt;/span&gt;" style="rounded=0;whiteSpace=wrap;html=1;labelBackgroundColor=none;" vertex="1" parent="1">
          <mxGeometry x="1062.5" y="940" width="225" height="60" as="geometry" />
        </mxCell>
        <mxCell id="bL9SBz04uiBQj-h55vJ3-37" value="&lt;span style=&quot;box-sizing: border-box; color: var(--color-prettylights-syntax-entity); font-family: ui-monospace, SFMono-Regular, &amp;quot;SF Mono&amp;quot;, Menlo, Consolas, &amp;quot;Liberation Mono&amp;quot;, monospace; text-align: start;&quot; class=&quot;pl-en&quot;&gt;&lt;span style=&quot;box-sizing: border-box;&quot; data-hydro-click-hmac=&quot;84c8c88c7986b93579063a917ee946baa5a252d9f9bda58c9608301ca7f81011&quot; data-hydro-click=&quot;{&amp;quot;event_type&amp;quot;:&amp;quot;code_navigation.click_on_symbol&amp;quot;,&amp;quot;payload&amp;quot;:{&amp;quot;action&amp;quot;:&amp;quot;click_on_symbol&amp;quot;,&amp;quot;repository_id&amp;quot;:534065516,&amp;quot;ref&amp;quot;:&amp;quot;master&amp;quot;,&amp;quot;language&amp;quot;:&amp;quot;Python&amp;quot;,&amp;quot;backend&amp;quot;:&amp;quot;ALEPH_PRECISE&amp;quot;,&amp;quot;code_nav_context&amp;quot;:&amp;quot;BLOB_VIEW&amp;quot;,&amp;quot;retry_backend&amp;quot;:&amp;quot;&amp;quot;,&amp;quot;cross_repo_results_included&amp;quot;:&amp;quot;CROSS_REPO_ENABLED&amp;quot;,&amp;quot;in_repo_result_count&amp;quot;:0,&amp;quot;cross_repo_result_count&amp;quot;:0,&amp;quot;originating_url&amp;quot;:&amp;quot;https://github.com/Propolisss/school_code_python/find-definition?q=print&amp;amp;blob_path=classwork%2F01_11_2022%2F12.py&amp;amp;ref=master&amp;amp;language=Python&amp;amp;row=18&amp;amp;col=0&amp;amp;code_nav_context=BLOB_VIEW&amp;quot;,&amp;quot;user_id&amp;quot;:108543596}}&quot; class=&quot;pl-token&quot;&gt;print&lt;/span&gt;&lt;/span&gt;&lt;span style=&quot;color: rgb(201, 209, 217); font-family: ui-monospace, SFMono-Regular, &amp;quot;SF Mono&amp;quot;, Menlo, Consolas, &amp;quot;Liberation Mono&amp;quot;, monospace; text-align: start;&quot;&gt;(&lt;/span&gt;&lt;span style=&quot;box-sizing: border-box; color: rgb(201, 209, 217); font-family: ui-monospace, SFMono-Regular, &amp;quot;SF Mono&amp;quot;, Menlo, Consolas, &amp;quot;Liberation Mono&amp;quot;, monospace; text-align: start;&quot; class=&quot;pl-s1&quot;&gt;&lt;span style=&quot;box-sizing: border-box;&quot; data-hydro-click-hmac=&quot;ff5309e7ad7851a65dbbb21f02ed9edfd7b2a45cc1b9810b834dc2eff9e36cd7&quot; data-hydro-click=&quot;{&amp;quot;event_type&amp;quot;:&amp;quot;code_navigation.click_on_symbol&amp;quot;,&amp;quot;payload&amp;quot;:{&amp;quot;action&amp;quot;:&amp;quot;click_on_symbol&amp;quot;,&amp;quot;repository_id&amp;quot;:534065516,&amp;quot;ref&amp;quot;:&amp;quot;master&amp;quot;,&amp;quot;language&amp;quot;:&amp;quot;Python&amp;quot;,&amp;quot;backend&amp;quot;:&amp;quot;ALEPH_PRECISE&amp;quot;,&amp;quot;code_nav_context&amp;quot;:&amp;quot;BLOB_VIEW&amp;quot;,&amp;quot;retry_backend&amp;quot;:&amp;quot;&amp;quot;,&amp;quot;cross_repo_results_included&amp;quot;:&amp;quot;CROSS_REPO_ENABLED&amp;quot;,&amp;quot;in_repo_result_count&amp;quot;:1,&amp;quot;cross_repo_result_count&amp;quot;:0,&amp;quot;originating_url&amp;quot;:&amp;quot;https://github.com/Propolisss/school_code_python/find-definition?q=minn_len&amp;amp;blob_path=classwork%2F01_11_2022%2F12.py&amp;amp;ref=master&amp;amp;language=Python&amp;amp;row=18&amp;amp;col=6&amp;amp;code_nav_context=BLOB_VIEW&amp;quot;,&amp;quot;user_id&amp;quot;:108543596}}&quot; class=&quot;pl-token&quot;&gt;minn_len&lt;/span&gt;&lt;/span&gt;&lt;span style=&quot;color: rgb(201, 209, 217); font-family: ui-monospace, SFMono-Regular, &amp;quot;SF Mono&amp;quot;, Menlo, Consolas, &amp;quot;Liberation Mono&amp;quot;, monospace; text-align: start;&quot;&gt;)&lt;/span&gt;" style="shape=parallelogram;perimeter=parallelogramPerimeter;whiteSpace=wrap;html=1;fixedSize=1;labelBackgroundColor=none;" vertex="1" parent="1">
          <mxGeometry x="840" y="410" width="200" height="60" as="geometry" />
        </mxCell>
      </root>
    </mxGraphModel>
  </diagram>
</mxfile>
